<mxfile host="Electron" modified="2023-10-12T12:29:32.048Z" agent="Mozilla/5.0 (Windows NT 10.0; Win64; x64) AppleWebKit/537.36 (KHTML, like Gecko) draw.io/22.0.2 Chrome/114.0.5735.289 Electron/25.8.4 Safari/537.36" etag="O-mj8pKuYbtPtvBcxg9p" version="22.0.2" type="device">
  <diagram name="Page-1" id="KtR0tIAXTWWS5wgDO4Ly">
    <mxGraphModel dx="3322" dy="974" grid="1" gridSize="10" guides="1" tooltips="1" connect="1" arrows="1" fold="1" page="1" pageScale="1" pageWidth="1654" pageHeight="1169" math="0" shadow="0">
      <root>
        <mxCell id="0" />
        <mxCell id="1" parent="0" />
        <mxCell id="Gc_ng3sy232MjrbWiRq0-5" value="Pas de Completed Ride&amp;nbsp;à envoyer" style="swimlane;horizontal=0;whiteSpace=wrap;html=1;" parent="1" vertex="1">
          <mxGeometry x="20" y="10" width="880" height="450" as="geometry" />
        </mxCell>
        <mxCell id="Gc_ng3sy232MjrbWiRq0-1" value="SDCard" style="swimlane;whiteSpace=wrap;html=1;" parent="Gc_ng3sy232MjrbWiRq0-5" vertex="1">
          <mxGeometry x="40" y="10" width="250" height="150" as="geometry" />
        </mxCell>
        <mxCell id="Gc_ng3sy232MjrbWiRq0-2" value="isSendigRide = false" style="rounded=1;whiteSpace=wrap;html=1;" parent="Gc_ng3sy232MjrbWiRq0-1" vertex="1">
          <mxGeometry x="10" y="30" width="130" height="30" as="geometry" />
        </mxCell>
        <mxCell id="Gc_ng3sy232MjrbWiRq0-3" value="isSendigPoints = false" style="rounded=1;whiteSpace=wrap;html=1;" parent="Gc_ng3sy232MjrbWiRq0-1" vertex="1">
          <mxGeometry x="10" y="70" width="130" height="30" as="geometry" />
        </mxCell>
        <mxCell id="Gc_ng3sy232MjrbWiRq0-4" value="queueCompletedRideIds.getSize = 0" style="rounded=1;whiteSpace=wrap;html=1;" parent="Gc_ng3sy232MjrbWiRq0-1" vertex="1">
          <mxGeometry x="10" y="110" width="230" height="30" as="geometry" />
        </mxCell>
        <mxCell id="Gc_ng3sy232MjrbWiRq0-6" value="TSProperties.PropertiesCompletedRideToSend" style="swimlane;whiteSpace=wrap;html=1;" parent="Gc_ng3sy232MjrbWiRq0-5" vertex="1">
          <mxGeometry x="300" y="10" width="280" height="430" as="geometry" />
        </mxCell>
        <mxCell id="Gc_ng3sy232MjrbWiRq0-7" value="CompletedRideId = &quot;&quot;" style="rounded=1;whiteSpace=wrap;html=1;" parent="Gc_ng3sy232MjrbWiRq0-6" vertex="1">
          <mxGeometry x="10" y="30" width="130" height="30" as="geometry" />
        </mxCell>
        <mxCell id="Gc_ng3sy232MjrbWiRq0-8" value="Stats = &quot;&quot;" style="rounded=1;whiteSpace=wrap;html=1;" parent="Gc_ng3sy232MjrbWiRq0-6" vertex="1">
          <mxGeometry x="10" y="70" width="130" height="30" as="geometry" />
        </mxCell>
        <mxCell id="Gc_ng3sy232MjrbWiRq0-9" value="Point = &quot;&quot;" style="rounded=1;whiteSpace=wrap;html=1;" parent="Gc_ng3sy232MjrbWiRq0-6" vertex="1">
          <mxGeometry x="10" y="110" width="130" height="30" as="geometry" />
        </mxCell>
        <mxCell id="Gc_ng3sy232MjrbWiRq0-10" value="CurrentPointNumber = 0" style="rounded=1;whiteSpace=wrap;html=1;" parent="Gc_ng3sy232MjrbWiRq0-6" vertex="1">
          <mxGeometry x="10" y="150" width="140" height="30" as="geometry" />
        </mxCell>
        <mxCell id="Gc_ng3sy232MjrbWiRq0-11" value="NbPoints = 0" style="rounded=1;whiteSpace=wrap;html=1;" parent="Gc_ng3sy232MjrbWiRq0-6" vertex="1">
          <mxGeometry x="10" y="190" width="130" height="30" as="geometry" />
        </mxCell>
        <mxCell id="Gc_ng3sy232MjrbWiRq0-12" value="IsStatsReceived = false" style="rounded=1;whiteSpace=wrap;html=1;" parent="Gc_ng3sy232MjrbWiRq0-6" vertex="1">
          <mxGeometry x="10" y="230" width="130" height="30" as="geometry" />
        </mxCell>
        <mxCell id="Gc_ng3sy232MjrbWiRq0-13" value="IsPointReady = false" style="rounded=1;whiteSpace=wrap;html=1;" parent="Gc_ng3sy232MjrbWiRq0-6" vertex="1">
          <mxGeometry x="10" y="270" width="130" height="30" as="geometry" />
        </mxCell>
        <mxCell id="Gc_ng3sy232MjrbWiRq0-14" value="IsPointReceived = false" style="rounded=1;whiteSpace=wrap;html=1;" parent="Gc_ng3sy232MjrbWiRq0-6" vertex="1">
          <mxGeometry x="10" y="310" width="130" height="30" as="geometry" />
        </mxCell>
        <mxCell id="Gc_ng3sy232MjrbWiRq0-15" value="IsReady = false" style="rounded=1;whiteSpace=wrap;html=1;" parent="Gc_ng3sy232MjrbWiRq0-6" vertex="1">
          <mxGeometry x="10" y="350" width="130" height="30" as="geometry" />
        </mxCell>
        <mxCell id="Gc_ng3sy232MjrbWiRq0-16" value="IsReceived = false" style="rounded=1;whiteSpace=wrap;html=1;" parent="Gc_ng3sy232MjrbWiRq0-6" vertex="1">
          <mxGeometry x="10" y="390" width="130" height="30" as="geometry" />
        </mxCell>
        <mxCell id="Gc_ng3sy232MjrbWiRq0-17" value="BLE" style="swimlane;whiteSpace=wrap;html=1;" parent="Gc_ng3sy232MjrbWiRq0-5" vertex="1">
          <mxGeometry x="590" y="10" width="270" height="350" as="geometry" />
        </mxCell>
        <mxCell id="Gc_ng3sy232MjrbWiRq0-18" value="isDeviceConnected = true" style="rounded=1;whiteSpace=wrap;html=1;" parent="Gc_ng3sy232MjrbWiRq0-17" vertex="1">
          <mxGeometry x="10" y="30" width="250" height="30" as="geometry" />
        </mxCell>
        <mxCell id="Gc_ng3sy232MjrbWiRq0-19" value="isCompletedRideStatsSending = false" style="rounded=1;whiteSpace=wrap;html=1;" parent="Gc_ng3sy232MjrbWiRq0-17" vertex="1">
          <mxGeometry x="10" y="70" width="250" height="30" as="geometry" />
        </mxCell>
        <mxCell id="Gc_ng3sy232MjrbWiRq0-20" value="isCompletedRideStatsReceived = false" style="rounded=1;whiteSpace=wrap;html=1;" parent="Gc_ng3sy232MjrbWiRq0-17" vertex="1">
          <mxGeometry x="10" y="110" width="250" height="30" as="geometry" />
        </mxCell>
        <mxCell id="Gc_ng3sy232MjrbWiRq0-21" value="isCompletedRidePointSending = false" style="rounded=1;whiteSpace=wrap;html=1;" parent="Gc_ng3sy232MjrbWiRq0-17" vertex="1">
          <mxGeometry x="10" y="150" width="250" height="30" as="geometry" />
        </mxCell>
        <mxCell id="Gc_ng3sy232MjrbWiRq0-22" value="isCompletedRidePointReceived = false" style="rounded=1;whiteSpace=wrap;html=1;" parent="Gc_ng3sy232MjrbWiRq0-17" vertex="1">
          <mxGeometry x="10" y="190" width="250" height="30" as="geometry" />
        </mxCell>
        <mxCell id="Gc_ng3sy232MjrbWiRq0-23" value="currentPointNumber = 0" style="rounded=1;whiteSpace=wrap;html=1;" parent="Gc_ng3sy232MjrbWiRq0-17" vertex="1">
          <mxGeometry x="10" y="230" width="250" height="30" as="geometry" />
        </mxCell>
        <mxCell id="Gc_ng3sy232MjrbWiRq0-47" value="CRDataCaracteristic.value = &quot;&quot;" style="rounded=1;whiteSpace=wrap;html=1;" parent="Gc_ng3sy232MjrbWiRq0-17" vertex="1">
          <mxGeometry x="10" y="270" width="250" height="30" as="geometry" />
        </mxCell>
        <mxCell id="Gc_ng3sy232MjrbWiRq0-48" value="CRNotificationCaracteristic.value = &quot;sending&quot;" style="rounded=1;whiteSpace=wrap;html=1;" parent="Gc_ng3sy232MjrbWiRq0-17" vertex="1">
          <mxGeometry x="10" y="310" width="250" height="30" as="geometry" />
        </mxCell>
        <mxCell id="Gc_ng3sy232MjrbWiRq0-24" value="Un Completed Ride vient d&#39;être ajouté à&amp;nbsp;queueCompletedRideIds" style="swimlane;horizontal=0;whiteSpace=wrap;html=1;startSize=20;" parent="1" vertex="1">
          <mxGeometry x="20" y="500" width="880" height="450" as="geometry" />
        </mxCell>
        <mxCell id="zQi3U9UOKVfZqa7NP3H--1" style="edgeStyle=orthogonalEdgeStyle;rounded=0;orthogonalLoop=1;jettySize=auto;html=1;exitX=0.5;exitY=1;exitDx=0;exitDy=0;entryX=0;entryY=0.5;entryDx=0;entryDy=0;" edge="1" parent="Gc_ng3sy232MjrbWiRq0-24" source="Gc_ng3sy232MjrbWiRq0-25" target="Gc_ng3sy232MjrbWiRq0-29">
          <mxGeometry relative="1" as="geometry" />
        </mxCell>
        <mxCell id="zQi3U9UOKVfZqa7NP3H--2" value="Modifie" style="edgeLabel;html=1;align=center;verticalAlign=middle;resizable=0;points=[];" vertex="1" connectable="0" parent="zQi3U9UOKVfZqa7NP3H--1">
          <mxGeometry x="0.0742" relative="1" as="geometry">
            <mxPoint as="offset" />
          </mxGeometry>
        </mxCell>
        <mxCell id="Gc_ng3sy232MjrbWiRq0-25" value="SDCard" style="swimlane;whiteSpace=wrap;html=1;" parent="Gc_ng3sy232MjrbWiRq0-24" vertex="1">
          <mxGeometry x="40" y="10" width="250" height="150" as="geometry" />
        </mxCell>
        <mxCell id="Gc_ng3sy232MjrbWiRq0-26" value="isSendigRide = false" style="rounded=1;whiteSpace=wrap;html=1;" parent="Gc_ng3sy232MjrbWiRq0-25" vertex="1">
          <mxGeometry x="10" y="30" width="130" height="30" as="geometry" />
        </mxCell>
        <mxCell id="Gc_ng3sy232MjrbWiRq0-27" value="isSendigPoints = false" style="rounded=1;whiteSpace=wrap;html=1;" parent="Gc_ng3sy232MjrbWiRq0-25" vertex="1">
          <mxGeometry x="10" y="70" width="130" height="30" as="geometry" />
        </mxCell>
        <mxCell id="Gc_ng3sy232MjrbWiRq0-28" value="queueCompletedRideIds.getSize &amp;gt; 0" style="rounded=1;whiteSpace=wrap;html=1;fillColor=#fff2cc;strokeColor=#d6b656;" parent="Gc_ng3sy232MjrbWiRq0-25" vertex="1">
          <mxGeometry x="10" y="110" width="230" height="30" as="geometry" />
        </mxCell>
        <mxCell id="Gc_ng3sy232MjrbWiRq0-29" value="TSProperties.PropertiesCompletedRideToSend" style="swimlane;whiteSpace=wrap;html=1;" parent="Gc_ng3sy232MjrbWiRq0-24" vertex="1">
          <mxGeometry x="300" y="10" width="280" height="430" as="geometry" />
        </mxCell>
        <mxCell id="Gc_ng3sy232MjrbWiRq0-30" value="CompletedRideId = &quot;&quot;" style="rounded=1;whiteSpace=wrap;html=1;" parent="Gc_ng3sy232MjrbWiRq0-29" vertex="1">
          <mxGeometry x="10" y="30" width="130" height="30" as="geometry" />
        </mxCell>
        <mxCell id="Gc_ng3sy232MjrbWiRq0-31" value="Stats = &quot;&quot;" style="rounded=1;whiteSpace=wrap;html=1;" parent="Gc_ng3sy232MjrbWiRq0-29" vertex="1">
          <mxGeometry x="10" y="70" width="130" height="30" as="geometry" />
        </mxCell>
        <mxCell id="Gc_ng3sy232MjrbWiRq0-32" value="Point = &quot;&quot;" style="rounded=1;whiteSpace=wrap;html=1;" parent="Gc_ng3sy232MjrbWiRq0-29" vertex="1">
          <mxGeometry x="10" y="110" width="130" height="30" as="geometry" />
        </mxCell>
        <mxCell id="Gc_ng3sy232MjrbWiRq0-33" value="CurrentPointNumber = 0" style="rounded=1;whiteSpace=wrap;html=1;" parent="Gc_ng3sy232MjrbWiRq0-29" vertex="1">
          <mxGeometry x="10" y="150" width="140" height="30" as="geometry" />
        </mxCell>
        <mxCell id="Gc_ng3sy232MjrbWiRq0-34" value="NbPoints = 0" style="rounded=1;whiteSpace=wrap;html=1;" parent="Gc_ng3sy232MjrbWiRq0-29" vertex="1">
          <mxGeometry x="10" y="190" width="130" height="30" as="geometry" />
        </mxCell>
        <mxCell id="Gc_ng3sy232MjrbWiRq0-35" value="IsStatsReceived = false" style="rounded=1;whiteSpace=wrap;html=1;" parent="Gc_ng3sy232MjrbWiRq0-29" vertex="1">
          <mxGeometry x="10" y="230" width="130" height="30" as="geometry" />
        </mxCell>
        <mxCell id="Gc_ng3sy232MjrbWiRq0-36" value="IsPointReady = false" style="rounded=1;whiteSpace=wrap;html=1;" parent="Gc_ng3sy232MjrbWiRq0-29" vertex="1">
          <mxGeometry x="10" y="270" width="130" height="30" as="geometry" />
        </mxCell>
        <mxCell id="Gc_ng3sy232MjrbWiRq0-37" value="IsPointReceived = false" style="rounded=1;whiteSpace=wrap;html=1;" parent="Gc_ng3sy232MjrbWiRq0-29" vertex="1">
          <mxGeometry x="10" y="310" width="130" height="30" as="geometry" />
        </mxCell>
        <mxCell id="Gc_ng3sy232MjrbWiRq0-38" value="IsReady = false" style="rounded=1;whiteSpace=wrap;html=1;" parent="Gc_ng3sy232MjrbWiRq0-29" vertex="1">
          <mxGeometry x="10" y="350" width="130" height="30" as="geometry" />
        </mxCell>
        <mxCell id="Gc_ng3sy232MjrbWiRq0-39" value="IsReceived = false" style="rounded=1;whiteSpace=wrap;html=1;" parent="Gc_ng3sy232MjrbWiRq0-29" vertex="1">
          <mxGeometry x="10" y="390" width="130" height="30" as="geometry" />
        </mxCell>
        <mxCell id="Gc_ng3sy232MjrbWiRq0-40" value="BLE" style="swimlane;whiteSpace=wrap;html=1;" parent="Gc_ng3sy232MjrbWiRq0-24" vertex="1">
          <mxGeometry x="590" y="10" width="270" height="350" as="geometry" />
        </mxCell>
        <mxCell id="Gc_ng3sy232MjrbWiRq0-41" value="isDeviceConnected = true" style="rounded=1;whiteSpace=wrap;html=1;" parent="Gc_ng3sy232MjrbWiRq0-40" vertex="1">
          <mxGeometry x="10" y="30" width="250" height="30" as="geometry" />
        </mxCell>
        <mxCell id="Gc_ng3sy232MjrbWiRq0-42" value="isCompletedRideStatsSending = false" style="rounded=1;whiteSpace=wrap;html=1;" parent="Gc_ng3sy232MjrbWiRq0-40" vertex="1">
          <mxGeometry x="10" y="70" width="250" height="30" as="geometry" />
        </mxCell>
        <mxCell id="Gc_ng3sy232MjrbWiRq0-43" value="isCompletedRideStatsReceived = false" style="rounded=1;whiteSpace=wrap;html=1;" parent="Gc_ng3sy232MjrbWiRq0-40" vertex="1">
          <mxGeometry x="10" y="110" width="250" height="30" as="geometry" />
        </mxCell>
        <mxCell id="Gc_ng3sy232MjrbWiRq0-44" value="isCompletedRidePointSending = false" style="rounded=1;whiteSpace=wrap;html=1;" parent="Gc_ng3sy232MjrbWiRq0-40" vertex="1">
          <mxGeometry x="10" y="150" width="250" height="30" as="geometry" />
        </mxCell>
        <mxCell id="Gc_ng3sy232MjrbWiRq0-45" value="isCompletedRidePointReceived = false" style="rounded=1;whiteSpace=wrap;html=1;" parent="Gc_ng3sy232MjrbWiRq0-40" vertex="1">
          <mxGeometry x="10" y="190" width="250" height="30" as="geometry" />
        </mxCell>
        <mxCell id="Gc_ng3sy232MjrbWiRq0-46" value="currentPointNumber = 0" style="rounded=1;whiteSpace=wrap;html=1;" parent="Gc_ng3sy232MjrbWiRq0-40" vertex="1">
          <mxGeometry x="10" y="230" width="250" height="30" as="geometry" />
        </mxCell>
        <mxCell id="Gc_ng3sy232MjrbWiRq0-219" value="CRDataCaracteristic.value = &quot;&quot;" style="rounded=1;whiteSpace=wrap;html=1;" parent="Gc_ng3sy232MjrbWiRq0-40" vertex="1">
          <mxGeometry x="10" y="270" width="250" height="30" as="geometry" />
        </mxCell>
        <mxCell id="Gc_ng3sy232MjrbWiRq0-220" value="CRNotificationCaracteristic.value = &quot;sending&quot;" style="rounded=1;whiteSpace=wrap;html=1;" parent="Gc_ng3sy232MjrbWiRq0-40" vertex="1">
          <mxGeometry x="10" y="310" width="250" height="30" as="geometry" />
        </mxCell>
        <mxCell id="Gc_ng3sy232MjrbWiRq0-72" value="SDCard lit le fichier stats du completed ride&amp;nbsp;et aucun completed ride n&#39;est envoyé par BLE" style="swimlane;horizontal=0;whiteSpace=wrap;html=1;startSize=40;" parent="1" vertex="1">
          <mxGeometry x="20" y="980" width="880" height="450" as="geometry" />
        </mxCell>
        <mxCell id="zQi3U9UOKVfZqa7NP3H--4" style="edgeStyle=orthogonalEdgeStyle;rounded=0;orthogonalLoop=1;jettySize=auto;html=1;exitX=0.5;exitY=1;exitDx=0;exitDy=0;entryX=0;entryY=0.5;entryDx=0;entryDy=0;" edge="1" parent="Gc_ng3sy232MjrbWiRq0-72" source="Gc_ng3sy232MjrbWiRq0-73" target="Gc_ng3sy232MjrbWiRq0-77">
          <mxGeometry relative="1" as="geometry" />
        </mxCell>
        <mxCell id="zQi3U9UOKVfZqa7NP3H--5" value="Modifie" style="edgeLabel;html=1;align=center;verticalAlign=middle;resizable=0;points=[];" vertex="1" connectable="0" parent="zQi3U9UOKVfZqa7NP3H--4">
          <mxGeometry x="0.1484" y="1" relative="1" as="geometry">
            <mxPoint as="offset" />
          </mxGeometry>
        </mxCell>
        <mxCell id="Gc_ng3sy232MjrbWiRq0-73" value="SDCard" style="swimlane;whiteSpace=wrap;html=1;" parent="Gc_ng3sy232MjrbWiRq0-72" vertex="1">
          <mxGeometry x="40" y="10" width="250" height="150" as="geometry" />
        </mxCell>
        <mxCell id="Gc_ng3sy232MjrbWiRq0-74" value="isSendigRide = true" style="rounded=1;whiteSpace=wrap;html=1;fillColor=#fff2cc;strokeColor=#d6b656;" parent="Gc_ng3sy232MjrbWiRq0-73" vertex="1">
          <mxGeometry x="10" y="30" width="130" height="30" as="geometry" />
        </mxCell>
        <mxCell id="Gc_ng3sy232MjrbWiRq0-75" value="isSendigPoints = true" style="rounded=1;whiteSpace=wrap;html=1;fillColor=#fff2cc;strokeColor=#d6b656;" parent="Gc_ng3sy232MjrbWiRq0-73" vertex="1">
          <mxGeometry x="10" y="70" width="130" height="30" as="geometry" />
        </mxCell>
        <mxCell id="Gc_ng3sy232MjrbWiRq0-76" value="queueCompletedRideIds.getSize = 0" style="rounded=1;whiteSpace=wrap;html=1;fillColor=#fff2cc;strokeColor=#d6b656;" parent="Gc_ng3sy232MjrbWiRq0-73" vertex="1">
          <mxGeometry x="10" y="110" width="230" height="30" as="geometry" />
        </mxCell>
        <mxCell id="Gc_ng3sy232MjrbWiRq0-77" value="TSProperties.PropertiesCompletedRideToSend" style="swimlane;whiteSpace=wrap;html=1;" parent="Gc_ng3sy232MjrbWiRq0-72" vertex="1">
          <mxGeometry x="300" y="10" width="280" height="430" as="geometry" />
        </mxCell>
        <mxCell id="Gc_ng3sy232MjrbWiRq0-78" value="CompletedRideId = completedRide_ID" style="rounded=1;whiteSpace=wrap;html=1;fillColor=#fff2cc;strokeColor=#d6b656;" parent="Gc_ng3sy232MjrbWiRq0-77" vertex="1">
          <mxGeometry x="10" y="30" width="260" height="30" as="geometry" />
        </mxCell>
        <mxCell id="Gc_ng3sy232MjrbWiRq0-79" value="Stats = completedRide_Stats" style="rounded=1;whiteSpace=wrap;html=1;fillColor=#fff2cc;strokeColor=#d6b656;" parent="Gc_ng3sy232MjrbWiRq0-77" vertex="1">
          <mxGeometry x="10" y="70" width="260" height="30" as="geometry" />
        </mxCell>
        <mxCell id="Gc_ng3sy232MjrbWiRq0-80" value="Point = &quot;&quot;" style="rounded=1;whiteSpace=wrap;html=1;" parent="Gc_ng3sy232MjrbWiRq0-77" vertex="1">
          <mxGeometry x="10" y="110" width="130" height="30" as="geometry" />
        </mxCell>
        <mxCell id="Gc_ng3sy232MjrbWiRq0-81" value="CurrentPointNumber = 0" style="rounded=1;whiteSpace=wrap;html=1;" parent="Gc_ng3sy232MjrbWiRq0-77" vertex="1">
          <mxGeometry x="10" y="150" width="140" height="30" as="geometry" />
        </mxCell>
        <mxCell id="Gc_ng3sy232MjrbWiRq0-82" value="NbPoints = completedRide_NbOdPoints" style="rounded=1;whiteSpace=wrap;html=1;fillColor=#fff2cc;strokeColor=#d6b656;" parent="Gc_ng3sy232MjrbWiRq0-77" vertex="1">
          <mxGeometry x="10" y="190" width="250" height="30" as="geometry" />
        </mxCell>
        <mxCell id="Gc_ng3sy232MjrbWiRq0-83" value="IsStatsReceived = false" style="rounded=1;whiteSpace=wrap;html=1;fillColor=#fff2cc;strokeColor=#d6b656;" parent="Gc_ng3sy232MjrbWiRq0-77" vertex="1">
          <mxGeometry x="10" y="230" width="130" height="30" as="geometry" />
        </mxCell>
        <mxCell id="Gc_ng3sy232MjrbWiRq0-84" value="IsPointReady = false" style="rounded=1;whiteSpace=wrap;html=1;fillColor=#fff2cc;strokeColor=#d6b656;" parent="Gc_ng3sy232MjrbWiRq0-77" vertex="1">
          <mxGeometry x="10" y="270" width="130" height="30" as="geometry" />
        </mxCell>
        <mxCell id="Gc_ng3sy232MjrbWiRq0-85" value="IsPointReceived = false" style="rounded=1;whiteSpace=wrap;html=1;fillColor=#fff2cc;strokeColor=#d6b656;" parent="Gc_ng3sy232MjrbWiRq0-77" vertex="1">
          <mxGeometry x="10" y="310" width="130" height="30" as="geometry" />
        </mxCell>
        <mxCell id="Gc_ng3sy232MjrbWiRq0-86" value="IsReady = true" style="rounded=1;whiteSpace=wrap;html=1;fillColor=#fff2cc;strokeColor=#d6b656;" parent="Gc_ng3sy232MjrbWiRq0-77" vertex="1">
          <mxGeometry x="10" y="350" width="130" height="30" as="geometry" />
        </mxCell>
        <mxCell id="Gc_ng3sy232MjrbWiRq0-87" value="IsReceived = false" style="rounded=1;whiteSpace=wrap;html=1;fillColor=#fff2cc;strokeColor=#d6b656;" parent="Gc_ng3sy232MjrbWiRq0-77" vertex="1">
          <mxGeometry x="10" y="390" width="130" height="30" as="geometry" />
        </mxCell>
        <mxCell id="Gc_ng3sy232MjrbWiRq0-88" value="BLE" style="swimlane;whiteSpace=wrap;html=1;" parent="Gc_ng3sy232MjrbWiRq0-72" vertex="1">
          <mxGeometry x="590" y="10" width="270" height="350" as="geometry" />
        </mxCell>
        <mxCell id="Gc_ng3sy232MjrbWiRq0-89" value="isDeviceConnected = true" style="rounded=1;whiteSpace=wrap;html=1;" parent="Gc_ng3sy232MjrbWiRq0-88" vertex="1">
          <mxGeometry x="10" y="30" width="250" height="30" as="geometry" />
        </mxCell>
        <mxCell id="Gc_ng3sy232MjrbWiRq0-90" value="isCompletedRideStatsSending = false" style="rounded=1;whiteSpace=wrap;html=1;" parent="Gc_ng3sy232MjrbWiRq0-88" vertex="1">
          <mxGeometry x="10" y="70" width="250" height="30" as="geometry" />
        </mxCell>
        <mxCell id="Gc_ng3sy232MjrbWiRq0-91" value="isCompletedRideStatsReceived = false" style="rounded=1;whiteSpace=wrap;html=1;" parent="Gc_ng3sy232MjrbWiRq0-88" vertex="1">
          <mxGeometry x="10" y="110" width="250" height="30" as="geometry" />
        </mxCell>
        <mxCell id="Gc_ng3sy232MjrbWiRq0-92" value="isCompletedRidePointSending = false" style="rounded=1;whiteSpace=wrap;html=1;" parent="Gc_ng3sy232MjrbWiRq0-88" vertex="1">
          <mxGeometry x="10" y="150" width="250" height="30" as="geometry" />
        </mxCell>
        <mxCell id="Gc_ng3sy232MjrbWiRq0-93" value="isCompletedRidePointReceived = false" style="rounded=1;whiteSpace=wrap;html=1;" parent="Gc_ng3sy232MjrbWiRq0-88" vertex="1">
          <mxGeometry x="10" y="190" width="250" height="30" as="geometry" />
        </mxCell>
        <mxCell id="Gc_ng3sy232MjrbWiRq0-94" value="currentPointNumber = 0" style="rounded=1;whiteSpace=wrap;html=1;" parent="Gc_ng3sy232MjrbWiRq0-88" vertex="1">
          <mxGeometry x="10" y="230" width="250" height="30" as="geometry" />
        </mxCell>
        <mxCell id="Gc_ng3sy232MjrbWiRq0-221" value="CRDataCaracteristic.value = &quot;&quot;" style="rounded=1;whiteSpace=wrap;html=1;" parent="Gc_ng3sy232MjrbWiRq0-88" vertex="1">
          <mxGeometry x="10" y="270" width="250" height="30" as="geometry" />
        </mxCell>
        <mxCell id="Gc_ng3sy232MjrbWiRq0-222" value="CRNotificationCaracteristic.value = &quot;sending&quot;" style="rounded=1;whiteSpace=wrap;html=1;" parent="Gc_ng3sy232MjrbWiRq0-88" vertex="1">
          <mxGeometry x="10" y="310" width="250" height="30" as="geometry" />
        </mxCell>
        <mxCell id="Gc_ng3sy232MjrbWiRq0-118" value="BLE envoi les stats" style="swimlane;horizontal=0;whiteSpace=wrap;html=1;" parent="1" vertex="1">
          <mxGeometry x="20" y="1460" width="880" height="450" as="geometry" />
        </mxCell>
        <mxCell id="Gc_ng3sy232MjrbWiRq0-119" value="SDCard" style="swimlane;whiteSpace=wrap;html=1;" parent="Gc_ng3sy232MjrbWiRq0-118" vertex="1">
          <mxGeometry x="40" y="10" width="250" height="150" as="geometry" />
        </mxCell>
        <mxCell id="Gc_ng3sy232MjrbWiRq0-120" value="isSendigRide = true" style="rounded=1;whiteSpace=wrap;html=1;" parent="Gc_ng3sy232MjrbWiRq0-119" vertex="1">
          <mxGeometry x="10" y="30" width="130" height="30" as="geometry" />
        </mxCell>
        <mxCell id="Gc_ng3sy232MjrbWiRq0-121" value="isSendigPoints = true" style="rounded=1;whiteSpace=wrap;html=1;" parent="Gc_ng3sy232MjrbWiRq0-119" vertex="1">
          <mxGeometry x="10" y="70" width="130" height="30" as="geometry" />
        </mxCell>
        <mxCell id="Gc_ng3sy232MjrbWiRq0-122" value="queueCompletedRideIds.getSize = 0" style="rounded=1;whiteSpace=wrap;html=1;" parent="Gc_ng3sy232MjrbWiRq0-119" vertex="1">
          <mxGeometry x="10" y="110" width="230" height="30" as="geometry" />
        </mxCell>
        <mxCell id="Gc_ng3sy232MjrbWiRq0-123" value="TSProperties.PropertiesCompletedRideToSend" style="swimlane;whiteSpace=wrap;html=1;" parent="Gc_ng3sy232MjrbWiRq0-118" vertex="1">
          <mxGeometry x="300" y="10" width="280" height="430" as="geometry" />
        </mxCell>
        <mxCell id="Gc_ng3sy232MjrbWiRq0-124" value="CompletedRideId = completedRide_ID" style="rounded=1;whiteSpace=wrap;html=1;" parent="Gc_ng3sy232MjrbWiRq0-123" vertex="1">
          <mxGeometry x="10" y="30" width="260" height="30" as="geometry" />
        </mxCell>
        <mxCell id="Gc_ng3sy232MjrbWiRq0-125" value="Stats = completedRide_Stats" style="rounded=1;whiteSpace=wrap;html=1;" parent="Gc_ng3sy232MjrbWiRq0-123" vertex="1">
          <mxGeometry x="10" y="70" width="260" height="30" as="geometry" />
        </mxCell>
        <mxCell id="Gc_ng3sy232MjrbWiRq0-126" value="Point = &quot;&quot;" style="rounded=1;whiteSpace=wrap;html=1;" parent="Gc_ng3sy232MjrbWiRq0-123" vertex="1">
          <mxGeometry x="10" y="110" width="130" height="30" as="geometry" />
        </mxCell>
        <mxCell id="Gc_ng3sy232MjrbWiRq0-127" value="CurrentPointNumber = 0" style="rounded=1;whiteSpace=wrap;html=1;" parent="Gc_ng3sy232MjrbWiRq0-123" vertex="1">
          <mxGeometry x="10" y="150" width="140" height="30" as="geometry" />
        </mxCell>
        <mxCell id="Gc_ng3sy232MjrbWiRq0-128" value="NbPoints = completedRide_NbOdPoints" style="rounded=1;whiteSpace=wrap;html=1;" parent="Gc_ng3sy232MjrbWiRq0-123" vertex="1">
          <mxGeometry x="10" y="190" width="260" height="30" as="geometry" />
        </mxCell>
        <mxCell id="Gc_ng3sy232MjrbWiRq0-129" value="IsStatsReceived = false" style="rounded=1;whiteSpace=wrap;html=1;" parent="Gc_ng3sy232MjrbWiRq0-123" vertex="1">
          <mxGeometry x="10" y="230" width="130" height="30" as="geometry" />
        </mxCell>
        <mxCell id="Gc_ng3sy232MjrbWiRq0-130" value="IsPointReady = false" style="rounded=1;whiteSpace=wrap;html=1;" parent="Gc_ng3sy232MjrbWiRq0-123" vertex="1">
          <mxGeometry x="10" y="270" width="130" height="30" as="geometry" />
        </mxCell>
        <mxCell id="Gc_ng3sy232MjrbWiRq0-131" value="IsPointReceived = false" style="rounded=1;whiteSpace=wrap;html=1;" parent="Gc_ng3sy232MjrbWiRq0-123" vertex="1">
          <mxGeometry x="10" y="310" width="130" height="30" as="geometry" />
        </mxCell>
        <mxCell id="Gc_ng3sy232MjrbWiRq0-132" value="IsReady = true" style="rounded=1;whiteSpace=wrap;html=1;" parent="Gc_ng3sy232MjrbWiRq0-123" vertex="1">
          <mxGeometry x="10" y="350" width="130" height="30" as="geometry" />
        </mxCell>
        <mxCell id="Gc_ng3sy232MjrbWiRq0-133" value="IsReceived = false" style="rounded=1;whiteSpace=wrap;html=1;" parent="Gc_ng3sy232MjrbWiRq0-123" vertex="1">
          <mxGeometry x="10" y="390" width="130" height="30" as="geometry" />
        </mxCell>
        <mxCell id="zQi3U9UOKVfZqa7NP3H--7" style="edgeStyle=orthogonalEdgeStyle;rounded=0;orthogonalLoop=1;jettySize=auto;html=1;exitX=0.5;exitY=1;exitDx=0;exitDy=0;" edge="1" parent="Gc_ng3sy232MjrbWiRq0-118" source="Gc_ng3sy232MjrbWiRq0-134">
          <mxGeometry relative="1" as="geometry">
            <mxPoint x="580" y="380" as="targetPoint" />
          </mxGeometry>
        </mxCell>
        <mxCell id="zQi3U9UOKVfZqa7NP3H--8" value="Modifie" style="edgeLabel;html=1;align=center;verticalAlign=middle;resizable=0;points=[];" vertex="1" connectable="0" parent="zQi3U9UOKVfZqa7NP3H--7">
          <mxGeometry x="0.3076" relative="1" as="geometry">
            <mxPoint as="offset" />
          </mxGeometry>
        </mxCell>
        <mxCell id="Gc_ng3sy232MjrbWiRq0-134" value="BLE" style="swimlane;whiteSpace=wrap;html=1;" parent="Gc_ng3sy232MjrbWiRq0-118" vertex="1">
          <mxGeometry x="590" y="10" width="270" height="350" as="geometry" />
        </mxCell>
        <mxCell id="Gc_ng3sy232MjrbWiRq0-135" value="isDeviceConnected = true" style="rounded=1;whiteSpace=wrap;html=1;" parent="Gc_ng3sy232MjrbWiRq0-134" vertex="1">
          <mxGeometry x="10" y="30" width="250" height="30" as="geometry" />
        </mxCell>
        <mxCell id="Gc_ng3sy232MjrbWiRq0-136" value="isCompletedRideStatsSending = true" style="rounded=1;whiteSpace=wrap;html=1;fillColor=#fff2cc;strokeColor=#d6b656;" parent="Gc_ng3sy232MjrbWiRq0-134" vertex="1">
          <mxGeometry x="10" y="70" width="250" height="30" as="geometry" />
        </mxCell>
        <mxCell id="Gc_ng3sy232MjrbWiRq0-137" value="isCompletedRideStatsReceived = false" style="rounded=1;whiteSpace=wrap;html=1;fillColor=#fff2cc;strokeColor=#d6b656;" parent="Gc_ng3sy232MjrbWiRq0-134" vertex="1">
          <mxGeometry x="10" y="110" width="250" height="30" as="geometry" />
        </mxCell>
        <mxCell id="Gc_ng3sy232MjrbWiRq0-138" value="isCompletedRidePointSending = false" style="rounded=1;whiteSpace=wrap;html=1;" parent="Gc_ng3sy232MjrbWiRq0-134" vertex="1">
          <mxGeometry x="10" y="150" width="250" height="30" as="geometry" />
        </mxCell>
        <mxCell id="Gc_ng3sy232MjrbWiRq0-139" value="isCompletedRidePointReceived = false" style="rounded=1;whiteSpace=wrap;html=1;" parent="Gc_ng3sy232MjrbWiRq0-134" vertex="1">
          <mxGeometry x="10" y="190" width="250" height="30" as="geometry" />
        </mxCell>
        <mxCell id="Gc_ng3sy232MjrbWiRq0-140" value="currentPointNumber = 0" style="rounded=1;whiteSpace=wrap;html=1;fillColor=#fff2cc;strokeColor=#d6b656;" parent="Gc_ng3sy232MjrbWiRq0-134" vertex="1">
          <mxGeometry x="10" y="230" width="250" height="30" as="geometry" />
        </mxCell>
        <mxCell id="Gc_ng3sy232MjrbWiRq0-141" value="CRDataCaracteristic.value = completedRide_Stats" style="rounded=1;whiteSpace=wrap;html=1;fillColor=#fff2cc;strokeColor=#d6b656;" parent="Gc_ng3sy232MjrbWiRq0-134" vertex="1">
          <mxGeometry x="10" y="270" width="250" height="30" as="geometry" />
        </mxCell>
        <mxCell id="Gc_ng3sy232MjrbWiRq0-142" value="CRNotificationCaracteristic.value = &quot;sending&quot;" style="rounded=1;whiteSpace=wrap;html=1;" parent="Gc_ng3sy232MjrbWiRq0-134" vertex="1">
          <mxGeometry x="10" y="310" width="250" height="30" as="geometry" />
        </mxCell>
        <mxCell id="Gc_ng3sy232MjrbWiRq0-143" value="BLE reçoi la confirmation de la réception des stats" style="swimlane;horizontal=0;whiteSpace=wrap;html=1;" parent="1" vertex="1">
          <mxGeometry x="20" y="1950" width="880" height="450" as="geometry" />
        </mxCell>
        <mxCell id="Gc_ng3sy232MjrbWiRq0-144" value="SDCard" style="swimlane;whiteSpace=wrap;html=1;" parent="Gc_ng3sy232MjrbWiRq0-143" vertex="1">
          <mxGeometry x="40" y="10" width="250" height="150" as="geometry" />
        </mxCell>
        <mxCell id="Gc_ng3sy232MjrbWiRq0-145" value="isSendigRide = true" style="rounded=1;whiteSpace=wrap;html=1;" parent="Gc_ng3sy232MjrbWiRq0-144" vertex="1">
          <mxGeometry x="10" y="30" width="130" height="30" as="geometry" />
        </mxCell>
        <mxCell id="Gc_ng3sy232MjrbWiRq0-146" value="isSendigPoints = true" style="rounded=1;whiteSpace=wrap;html=1;" parent="Gc_ng3sy232MjrbWiRq0-144" vertex="1">
          <mxGeometry x="10" y="70" width="130" height="30" as="geometry" />
        </mxCell>
        <mxCell id="Gc_ng3sy232MjrbWiRq0-147" value="queueCompletedRideIds.getSize = 0" style="rounded=1;whiteSpace=wrap;html=1;" parent="Gc_ng3sy232MjrbWiRq0-144" vertex="1">
          <mxGeometry x="10" y="110" width="230" height="30" as="geometry" />
        </mxCell>
        <mxCell id="Gc_ng3sy232MjrbWiRq0-148" value="TSProperties.PropertiesCompletedRideToSend" style="swimlane;whiteSpace=wrap;html=1;" parent="Gc_ng3sy232MjrbWiRq0-143" vertex="1">
          <mxGeometry x="300" y="10" width="280" height="430" as="geometry" />
        </mxCell>
        <mxCell id="Gc_ng3sy232MjrbWiRq0-149" value="CompletedRideId = completedRide_ID" style="rounded=1;whiteSpace=wrap;html=1;" parent="Gc_ng3sy232MjrbWiRq0-148" vertex="1">
          <mxGeometry x="10" y="30" width="260" height="30" as="geometry" />
        </mxCell>
        <mxCell id="Gc_ng3sy232MjrbWiRq0-150" value="Stats = completedRide_Stats" style="rounded=1;whiteSpace=wrap;html=1;" parent="Gc_ng3sy232MjrbWiRq0-148" vertex="1">
          <mxGeometry x="10" y="70" width="260" height="30" as="geometry" />
        </mxCell>
        <mxCell id="Gc_ng3sy232MjrbWiRq0-151" value="Point = &quot;&quot;" style="rounded=1;whiteSpace=wrap;html=1;" parent="Gc_ng3sy232MjrbWiRq0-148" vertex="1">
          <mxGeometry x="10" y="110" width="130" height="30" as="geometry" />
        </mxCell>
        <mxCell id="Gc_ng3sy232MjrbWiRq0-152" value="CurrentPointNumber = 0" style="rounded=1;whiteSpace=wrap;html=1;" parent="Gc_ng3sy232MjrbWiRq0-148" vertex="1">
          <mxGeometry x="10" y="150" width="140" height="30" as="geometry" />
        </mxCell>
        <mxCell id="Gc_ng3sy232MjrbWiRq0-153" value="NbPoints = completedRide_NbOdPoints" style="rounded=1;whiteSpace=wrap;html=1;" parent="Gc_ng3sy232MjrbWiRq0-148" vertex="1">
          <mxGeometry x="10" y="190" width="260" height="30" as="geometry" />
        </mxCell>
        <mxCell id="Gc_ng3sy232MjrbWiRq0-154" value="IsStatsReceived = true" style="rounded=1;whiteSpace=wrap;html=1;fillColor=#fff2cc;strokeColor=#d6b656;" parent="Gc_ng3sy232MjrbWiRq0-148" vertex="1">
          <mxGeometry x="10" y="230" width="130" height="30" as="geometry" />
        </mxCell>
        <mxCell id="Gc_ng3sy232MjrbWiRq0-155" value="IsPointReady = false" style="rounded=1;whiteSpace=wrap;html=1;" parent="Gc_ng3sy232MjrbWiRq0-148" vertex="1">
          <mxGeometry x="10" y="270" width="130" height="30" as="geometry" />
        </mxCell>
        <mxCell id="Gc_ng3sy232MjrbWiRq0-156" value="IsPointReceived = false" style="rounded=1;whiteSpace=wrap;html=1;" parent="Gc_ng3sy232MjrbWiRq0-148" vertex="1">
          <mxGeometry x="10" y="310" width="130" height="30" as="geometry" />
        </mxCell>
        <mxCell id="Gc_ng3sy232MjrbWiRq0-157" value="IsReady = true" style="rounded=1;whiteSpace=wrap;html=1;" parent="Gc_ng3sy232MjrbWiRq0-148" vertex="1">
          <mxGeometry x="10" y="350" width="130" height="30" as="geometry" />
        </mxCell>
        <mxCell id="Gc_ng3sy232MjrbWiRq0-158" value="IsReceived = false" style="rounded=1;whiteSpace=wrap;html=1;" parent="Gc_ng3sy232MjrbWiRq0-148" vertex="1">
          <mxGeometry x="10" y="390" width="130" height="30" as="geometry" />
        </mxCell>
        <mxCell id="zQi3U9UOKVfZqa7NP3H--9" style="edgeStyle=orthogonalEdgeStyle;rounded=0;orthogonalLoop=1;jettySize=auto;html=1;exitX=0.5;exitY=1;exitDx=0;exitDy=0;" edge="1" parent="Gc_ng3sy232MjrbWiRq0-143" source="Gc_ng3sy232MjrbWiRq0-159">
          <mxGeometry relative="1" as="geometry">
            <mxPoint x="580" y="380" as="targetPoint" />
          </mxGeometry>
        </mxCell>
        <mxCell id="zQi3U9UOKVfZqa7NP3H--10" value="Modifie" style="edgeLabel;html=1;align=center;verticalAlign=middle;resizable=0;points=[];" vertex="1" connectable="0" parent="zQi3U9UOKVfZqa7NP3H--9">
          <mxGeometry x="-0.0317" relative="1" as="geometry">
            <mxPoint as="offset" />
          </mxGeometry>
        </mxCell>
        <mxCell id="Gc_ng3sy232MjrbWiRq0-159" value="BLE" style="swimlane;whiteSpace=wrap;html=1;" parent="Gc_ng3sy232MjrbWiRq0-143" vertex="1">
          <mxGeometry x="590" y="10" width="270" height="350" as="geometry" />
        </mxCell>
        <mxCell id="Gc_ng3sy232MjrbWiRq0-160" value="isDeviceConnected = true" style="rounded=1;whiteSpace=wrap;html=1;" parent="Gc_ng3sy232MjrbWiRq0-159" vertex="1">
          <mxGeometry x="10" y="30" width="250" height="30" as="geometry" />
        </mxCell>
        <mxCell id="Gc_ng3sy232MjrbWiRq0-161" value="isCompletedRideStatsSending = false" style="rounded=1;whiteSpace=wrap;html=1;fillColor=#fff2cc;strokeColor=#d6b656;" parent="Gc_ng3sy232MjrbWiRq0-159" vertex="1">
          <mxGeometry x="10" y="70" width="250" height="30" as="geometry" />
        </mxCell>
        <mxCell id="Gc_ng3sy232MjrbWiRq0-162" value="isCompletedRideStatsReceived = true" style="rounded=1;whiteSpace=wrap;html=1;fillColor=#fff2cc;strokeColor=#d6b656;" parent="Gc_ng3sy232MjrbWiRq0-159" vertex="1">
          <mxGeometry x="10" y="110" width="250" height="30" as="geometry" />
        </mxCell>
        <mxCell id="Gc_ng3sy232MjrbWiRq0-163" value="isCompletedRidePointSending = false" style="rounded=1;whiteSpace=wrap;html=1;" parent="Gc_ng3sy232MjrbWiRq0-159" vertex="1">
          <mxGeometry x="10" y="150" width="250" height="30" as="geometry" />
        </mxCell>
        <mxCell id="Gc_ng3sy232MjrbWiRq0-164" value="isCompletedRidePointReceived = false" style="rounded=1;whiteSpace=wrap;html=1;" parent="Gc_ng3sy232MjrbWiRq0-159" vertex="1">
          <mxGeometry x="10" y="190" width="250" height="30" as="geometry" />
        </mxCell>
        <mxCell id="Gc_ng3sy232MjrbWiRq0-165" value="currentPointNumber = 1" style="rounded=1;whiteSpace=wrap;html=1;fillColor=#fff2cc;strokeColor=#d6b656;" parent="Gc_ng3sy232MjrbWiRq0-159" vertex="1">
          <mxGeometry x="10" y="230" width="250" height="30" as="geometry" />
        </mxCell>
        <mxCell id="Gc_ng3sy232MjrbWiRq0-166" value="CRDataCaracteristic.value = completedRide_Stats" style="rounded=1;whiteSpace=wrap;html=1;" parent="Gc_ng3sy232MjrbWiRq0-159" vertex="1">
          <mxGeometry x="10" y="270" width="250" height="30" as="geometry" />
        </mxCell>
        <mxCell id="Gc_ng3sy232MjrbWiRq0-167" value="CRNotificationCaracteristic.value = &quot;0&quot;" style="rounded=1;whiteSpace=wrap;html=1;fillColor=#f8cecc;strokeColor=#b85450;" parent="Gc_ng3sy232MjrbWiRq0-159" vertex="1">
          <mxGeometry x="10" y="310" width="250" height="30" as="geometry" />
        </mxCell>
        <mxCell id="Gc_ng3sy232MjrbWiRq0-224" value="Valeur changée par l&#39;application mobile pour confirmer la réception" style="shape=note;whiteSpace=wrap;html=1;backgroundOutline=1;darkOpacity=0.05;" parent="1" vertex="1">
          <mxGeometry x="950" y="2300" width="170" height="70" as="geometry" />
        </mxCell>
        <mxCell id="Gc_ng3sy232MjrbWiRq0-225" style="edgeStyle=orthogonalEdgeStyle;rounded=0;orthogonalLoop=1;jettySize=auto;html=1;exitX=0.5;exitY=0;exitDx=0;exitDy=0;exitPerimeter=0;endArrow=none;endFill=0;dashed=1;" parent="1" source="Gc_ng3sy232MjrbWiRq0-224" target="Gc_ng3sy232MjrbWiRq0-167" edge="1">
          <mxGeometry relative="1" as="geometry" />
        </mxCell>
        <mxCell id="Gc_ng3sy232MjrbWiRq0-252" style="edgeStyle=orthogonalEdgeStyle;rounded=0;orthogonalLoop=1;jettySize=auto;html=1;entryX=1;entryY=0.5;entryDx=0;entryDy=0;endArrow=none;endFill=0;dashed=1;" parent="1" source="Gc_ng3sy232MjrbWiRq0-251" target="Gc_ng3sy232MjrbWiRq0-250" edge="1">
          <mxGeometry relative="1" as="geometry" />
        </mxCell>
        <mxCell id="Gc_ng3sy232MjrbWiRq0-251" value="Valeur changée par l&#39;application mobile pour confirmer la réception" style="shape=note;whiteSpace=wrap;html=1;backgroundOutline=1;darkOpacity=0.05;" parent="1" vertex="1">
          <mxGeometry x="960" y="3730" width="170" height="70" as="geometry" />
        </mxCell>
        <mxCell id="Gc_ng3sy232MjrbWiRq0-253" value="BLE confirme la réception du dernier point" style="swimlane;horizontal=0;whiteSpace=wrap;html=1;startSize=23;" parent="1" vertex="1">
          <mxGeometry x="20" y="4390" width="880" height="450" as="geometry" />
        </mxCell>
        <mxCell id="Gc_ng3sy232MjrbWiRq0-254" value="SDCard" style="swimlane;whiteSpace=wrap;html=1;" parent="Gc_ng3sy232MjrbWiRq0-253" vertex="1">
          <mxGeometry x="40" y="10" width="250" height="150" as="geometry" />
        </mxCell>
        <mxCell id="Gc_ng3sy232MjrbWiRq0-255" value="isSendigRide = true" style="rounded=1;whiteSpace=wrap;html=1;" parent="Gc_ng3sy232MjrbWiRq0-254" vertex="1">
          <mxGeometry x="10" y="30" width="130" height="30" as="geometry" />
        </mxCell>
        <mxCell id="Gc_ng3sy232MjrbWiRq0-256" value="isSendigPoints = true" style="rounded=1;whiteSpace=wrap;html=1;" parent="Gc_ng3sy232MjrbWiRq0-254" vertex="1">
          <mxGeometry x="10" y="70" width="130" height="30" as="geometry" />
        </mxCell>
        <mxCell id="Gc_ng3sy232MjrbWiRq0-257" value="queueCompletedRideIds.getSize = 0" style="rounded=1;whiteSpace=wrap;html=1;" parent="Gc_ng3sy232MjrbWiRq0-254" vertex="1">
          <mxGeometry x="10" y="110" width="230" height="30" as="geometry" />
        </mxCell>
        <mxCell id="Gc_ng3sy232MjrbWiRq0-258" value="TSProperties.PropertiesCompletedRideToSend" style="swimlane;whiteSpace=wrap;html=1;" parent="Gc_ng3sy232MjrbWiRq0-253" vertex="1">
          <mxGeometry x="300" y="10" width="280" height="430" as="geometry" />
        </mxCell>
        <mxCell id="Gc_ng3sy232MjrbWiRq0-259" value="CompletedRideId = completedRide_ID" style="rounded=1;whiteSpace=wrap;html=1;" parent="Gc_ng3sy232MjrbWiRq0-258" vertex="1">
          <mxGeometry x="10" y="30" width="260" height="30" as="geometry" />
        </mxCell>
        <mxCell id="Gc_ng3sy232MjrbWiRq0-260" value="Stats = completedRide_Stats" style="rounded=1;whiteSpace=wrap;html=1;" parent="Gc_ng3sy232MjrbWiRq0-258" vertex="1">
          <mxGeometry x="10" y="70" width="260" height="30" as="geometry" />
        </mxCell>
        <mxCell id="Gc_ng3sy232MjrbWiRq0-261" value="Point = point_read" style="rounded=1;whiteSpace=wrap;html=1;" parent="Gc_ng3sy232MjrbWiRq0-258" vertex="1">
          <mxGeometry x="10" y="110" width="130" height="30" as="geometry" />
        </mxCell>
        <mxCell id="Gc_ng3sy232MjrbWiRq0-262" value="CurrentPointNumber = numberOfPointRead" style="rounded=1;whiteSpace=wrap;html=1;" parent="Gc_ng3sy232MjrbWiRq0-258" vertex="1">
          <mxGeometry x="10" y="150" width="260" height="30" as="geometry" />
        </mxCell>
        <mxCell id="Gc_ng3sy232MjrbWiRq0-263" value="NbPoints = completedRide_NbOfPoints" style="rounded=1;whiteSpace=wrap;html=1;" parent="Gc_ng3sy232MjrbWiRq0-258" vertex="1">
          <mxGeometry x="10" y="190" width="260" height="30" as="geometry" />
        </mxCell>
        <mxCell id="Gc_ng3sy232MjrbWiRq0-264" value="IsStatsReceived = true" style="rounded=1;whiteSpace=wrap;html=1;" parent="Gc_ng3sy232MjrbWiRq0-258" vertex="1">
          <mxGeometry x="10" y="230" width="130" height="30" as="geometry" />
        </mxCell>
        <mxCell id="Gc_ng3sy232MjrbWiRq0-265" value="IsPointReady = false" style="rounded=1;whiteSpace=wrap;html=1;fillColor=#fff2cc;strokeColor=#d6b656;" parent="Gc_ng3sy232MjrbWiRq0-258" vertex="1">
          <mxGeometry x="10" y="270" width="130" height="30" as="geometry" />
        </mxCell>
        <mxCell id="Gc_ng3sy232MjrbWiRq0-266" value="IsPointReceived = true" style="rounded=1;whiteSpace=wrap;html=1;fillColor=#fff2cc;strokeColor=#d6b656;" parent="Gc_ng3sy232MjrbWiRq0-258" vertex="1">
          <mxGeometry x="10" y="310" width="130" height="30" as="geometry" />
        </mxCell>
        <mxCell id="Gc_ng3sy232MjrbWiRq0-267" value="IsReady = false" style="rounded=1;whiteSpace=wrap;html=1;fillColor=#fff2cc;strokeColor=#d6b656;" parent="Gc_ng3sy232MjrbWiRq0-258" vertex="1">
          <mxGeometry x="10" y="350" width="130" height="30" as="geometry" />
        </mxCell>
        <mxCell id="Gc_ng3sy232MjrbWiRq0-268" value="IsReceived = true" style="rounded=1;whiteSpace=wrap;html=1;fillColor=#fff2cc;strokeColor=#d6b656;" parent="Gc_ng3sy232MjrbWiRq0-258" vertex="1">
          <mxGeometry x="10" y="390" width="130" height="30" as="geometry" />
        </mxCell>
        <mxCell id="zQi3U9UOKVfZqa7NP3H--20" style="edgeStyle=orthogonalEdgeStyle;rounded=0;orthogonalLoop=1;jettySize=auto;html=1;exitX=0.5;exitY=1;exitDx=0;exitDy=0;" edge="1" parent="Gc_ng3sy232MjrbWiRq0-253" source="Gc_ng3sy232MjrbWiRq0-269">
          <mxGeometry relative="1" as="geometry">
            <mxPoint x="580" y="380" as="targetPoint" />
          </mxGeometry>
        </mxCell>
        <mxCell id="zQi3U9UOKVfZqa7NP3H--21" value="Modifie" style="edgeLabel;html=1;align=center;verticalAlign=middle;resizable=0;points=[];" vertex="1" connectable="0" parent="zQi3U9UOKVfZqa7NP3H--20">
          <mxGeometry x="-0.1697" y="-2" relative="1" as="geometry">
            <mxPoint y="2" as="offset" />
          </mxGeometry>
        </mxCell>
        <mxCell id="Gc_ng3sy232MjrbWiRq0-269" value="BLE" style="swimlane;whiteSpace=wrap;html=1;" parent="Gc_ng3sy232MjrbWiRq0-253" vertex="1">
          <mxGeometry x="590" y="10" width="270" height="350" as="geometry" />
        </mxCell>
        <mxCell id="Gc_ng3sy232MjrbWiRq0-270" value="isDeviceConnected = true" style="rounded=1;whiteSpace=wrap;html=1;" parent="Gc_ng3sy232MjrbWiRq0-269" vertex="1">
          <mxGeometry x="10" y="30" width="250" height="30" as="geometry" />
        </mxCell>
        <mxCell id="Gc_ng3sy232MjrbWiRq0-271" value="isCompletedRideStatsSending = false" style="rounded=1;whiteSpace=wrap;html=1;" parent="Gc_ng3sy232MjrbWiRq0-269" vertex="1">
          <mxGeometry x="10" y="70" width="250" height="30" as="geometry" />
        </mxCell>
        <mxCell id="Gc_ng3sy232MjrbWiRq0-272" value="isCompletedRideStatsReceived = false" style="rounded=1;whiteSpace=wrap;html=1;fillColor=#fff2cc;strokeColor=#d6b656;" parent="Gc_ng3sy232MjrbWiRq0-269" vertex="1">
          <mxGeometry x="10" y="110" width="250" height="30" as="geometry" />
        </mxCell>
        <mxCell id="Gc_ng3sy232MjrbWiRq0-273" value="isCompletedRidePointSending = false" style="rounded=1;whiteSpace=wrap;html=1;" parent="Gc_ng3sy232MjrbWiRq0-269" vertex="1">
          <mxGeometry x="10" y="150" width="250" height="30" as="geometry" />
        </mxCell>
        <mxCell id="Gc_ng3sy232MjrbWiRq0-274" value="isCompletedRidePointReceived = false" style="rounded=1;whiteSpace=wrap;html=1;" parent="Gc_ng3sy232MjrbWiRq0-269" vertex="1">
          <mxGeometry x="10" y="190" width="250" height="30" as="geometry" />
        </mxCell>
        <mxCell id="Gc_ng3sy232MjrbWiRq0-275" value="currentPointNumber = numberOfPointRead" style="rounded=1;whiteSpace=wrap;html=1;" parent="Gc_ng3sy232MjrbWiRq0-269" vertex="1">
          <mxGeometry x="10" y="230" width="250" height="30" as="geometry" />
        </mxCell>
        <mxCell id="Gc_ng3sy232MjrbWiRq0-276" value="CRDataCaracteristic.value = point_read" style="rounded=1;whiteSpace=wrap;html=1;" parent="Gc_ng3sy232MjrbWiRq0-269" vertex="1">
          <mxGeometry x="10" y="270" width="250" height="30" as="geometry" />
        </mxCell>
        <mxCell id="Gc_ng3sy232MjrbWiRq0-277" value="CRNotificationCaracteristic.value = &quot;numberOfPointSent&quot;" style="rounded=1;whiteSpace=wrap;html=1;" parent="Gc_ng3sy232MjrbWiRq0-269" vertex="1">
          <mxGeometry x="10" y="310" width="250" height="30" as="geometry" />
        </mxCell>
        <mxCell id="Gc_ng3sy232MjrbWiRq0-278" value="" style="swimlane;startSize=0;fillColor=#dae8fc;strokeColor=#6c8ebf;fillStyle=solid;swimlaneFillColor=none;strokeWidth=14;" parent="1" vertex="1">
          <mxGeometry x="-120" y="2425" width="1270" height="1945" as="geometry" />
        </mxCell>
        <mxCell id="Gc_ng3sy232MjrbWiRq0-168" value="SDCard lit le premier point / prochain point" style="swimlane;horizontal=0;whiteSpace=wrap;html=1;" parent="Gc_ng3sy232MjrbWiRq0-278" vertex="1">
          <mxGeometry x="140" y="35" width="880" height="450" as="geometry" />
        </mxCell>
        <mxCell id="zQi3U9UOKVfZqa7NP3H--11" style="edgeStyle=orthogonalEdgeStyle;rounded=0;orthogonalLoop=1;jettySize=auto;html=1;exitX=0.5;exitY=1;exitDx=0;exitDy=0;entryX=0;entryY=0.5;entryDx=0;entryDy=0;" edge="1" parent="Gc_ng3sy232MjrbWiRq0-168" source="Gc_ng3sy232MjrbWiRq0-169" target="Gc_ng3sy232MjrbWiRq0-173">
          <mxGeometry relative="1" as="geometry" />
        </mxCell>
        <mxCell id="zQi3U9UOKVfZqa7NP3H--12" value="Modifie" style="edgeLabel;html=1;align=center;verticalAlign=middle;resizable=0;points=[];" vertex="1" connectable="0" parent="zQi3U9UOKVfZqa7NP3H--11">
          <mxGeometry x="0.4628" y="-1" relative="1" as="geometry">
            <mxPoint as="offset" />
          </mxGeometry>
        </mxCell>
        <mxCell id="Gc_ng3sy232MjrbWiRq0-169" value="SDCard" style="swimlane;whiteSpace=wrap;html=1;" parent="Gc_ng3sy232MjrbWiRq0-168" vertex="1">
          <mxGeometry x="40" y="10" width="250" height="150" as="geometry" />
        </mxCell>
        <mxCell id="Gc_ng3sy232MjrbWiRq0-170" value="isSendigRide = true" style="rounded=1;whiteSpace=wrap;html=1;" parent="Gc_ng3sy232MjrbWiRq0-169" vertex="1">
          <mxGeometry x="10" y="30" width="130" height="30" as="geometry" />
        </mxCell>
        <mxCell id="Gc_ng3sy232MjrbWiRq0-171" value="isSendigPoints = true" style="rounded=1;whiteSpace=wrap;html=1;" parent="Gc_ng3sy232MjrbWiRq0-169" vertex="1">
          <mxGeometry x="10" y="70" width="130" height="30" as="geometry" />
        </mxCell>
        <mxCell id="Gc_ng3sy232MjrbWiRq0-172" value="queueCompletedRideIds.getSize = 0" style="rounded=1;whiteSpace=wrap;html=1;" parent="Gc_ng3sy232MjrbWiRq0-169" vertex="1">
          <mxGeometry x="10" y="110" width="230" height="30" as="geometry" />
        </mxCell>
        <mxCell id="Gc_ng3sy232MjrbWiRq0-173" value="TSProperties.PropertiesCompletedRideToSend" style="swimlane;whiteSpace=wrap;html=1;" parent="Gc_ng3sy232MjrbWiRq0-168" vertex="1">
          <mxGeometry x="300" y="10" width="280" height="430" as="geometry" />
        </mxCell>
        <mxCell id="Gc_ng3sy232MjrbWiRq0-174" value="CompletedRideId = completedRide_ID" style="rounded=1;whiteSpace=wrap;html=1;" parent="Gc_ng3sy232MjrbWiRq0-173" vertex="1">
          <mxGeometry x="10" y="30" width="260" height="30" as="geometry" />
        </mxCell>
        <mxCell id="Gc_ng3sy232MjrbWiRq0-175" value="Stats = completedRide_Stats" style="rounded=1;whiteSpace=wrap;html=1;" parent="Gc_ng3sy232MjrbWiRq0-173" vertex="1">
          <mxGeometry x="10" y="70" width="260" height="30" as="geometry" />
        </mxCell>
        <mxCell id="Gc_ng3sy232MjrbWiRq0-176" value="Point = point_read" style="rounded=1;whiteSpace=wrap;html=1;fillColor=#fff2cc;strokeColor=#d6b656;" parent="Gc_ng3sy232MjrbWiRq0-173" vertex="1">
          <mxGeometry x="10" y="110" width="130" height="30" as="geometry" />
        </mxCell>
        <mxCell id="Gc_ng3sy232MjrbWiRq0-177" value="CurrentPointNumber = numberOfPointRead" style="rounded=1;whiteSpace=wrap;html=1;fillColor=#fff2cc;strokeColor=#d6b656;" parent="Gc_ng3sy232MjrbWiRq0-173" vertex="1">
          <mxGeometry x="10" y="150" width="260" height="30" as="geometry" />
        </mxCell>
        <mxCell id="Gc_ng3sy232MjrbWiRq0-178" value="NbPoints = completedRide_NbOfPoints" style="rounded=1;whiteSpace=wrap;html=1;" parent="Gc_ng3sy232MjrbWiRq0-173" vertex="1">
          <mxGeometry x="10" y="190" width="260" height="30" as="geometry" />
        </mxCell>
        <mxCell id="Gc_ng3sy232MjrbWiRq0-179" value="IsStatsReceived = true" style="rounded=1;whiteSpace=wrap;html=1;" parent="Gc_ng3sy232MjrbWiRq0-173" vertex="1">
          <mxGeometry x="10" y="230" width="130" height="30" as="geometry" />
        </mxCell>
        <mxCell id="Gc_ng3sy232MjrbWiRq0-180" value="IsPointReady = true" style="rounded=1;whiteSpace=wrap;html=1;fillColor=#fff2cc;strokeColor=#d6b656;" parent="Gc_ng3sy232MjrbWiRq0-173" vertex="1">
          <mxGeometry x="10" y="270" width="130" height="30" as="geometry" />
        </mxCell>
        <mxCell id="Gc_ng3sy232MjrbWiRq0-181" value="IsPointReceived = false" style="rounded=1;whiteSpace=wrap;html=1;fillColor=#fff2cc;strokeColor=#d6b656;" parent="Gc_ng3sy232MjrbWiRq0-173" vertex="1">
          <mxGeometry x="10" y="310" width="130" height="30" as="geometry" />
        </mxCell>
        <mxCell id="Gc_ng3sy232MjrbWiRq0-182" value="IsReady = true" style="rounded=1;whiteSpace=wrap;html=1;" parent="Gc_ng3sy232MjrbWiRq0-173" vertex="1">
          <mxGeometry x="10" y="350" width="130" height="30" as="geometry" />
        </mxCell>
        <mxCell id="Gc_ng3sy232MjrbWiRq0-183" value="IsReceived = false" style="rounded=1;whiteSpace=wrap;html=1;" parent="Gc_ng3sy232MjrbWiRq0-173" vertex="1">
          <mxGeometry x="10" y="390" width="130" height="30" as="geometry" />
        </mxCell>
        <mxCell id="Gc_ng3sy232MjrbWiRq0-184" value="BLE" style="swimlane;whiteSpace=wrap;html=1;" parent="Gc_ng3sy232MjrbWiRq0-168" vertex="1">
          <mxGeometry x="590" y="10" width="270" height="350" as="geometry" />
        </mxCell>
        <mxCell id="Gc_ng3sy232MjrbWiRq0-185" value="isDeviceConnected = true" style="rounded=1;whiteSpace=wrap;html=1;" parent="Gc_ng3sy232MjrbWiRq0-184" vertex="1">
          <mxGeometry x="10" y="30" width="250" height="30" as="geometry" />
        </mxCell>
        <mxCell id="Gc_ng3sy232MjrbWiRq0-186" value="isCompletedRideStatsSending = false" style="rounded=1;whiteSpace=wrap;html=1;" parent="Gc_ng3sy232MjrbWiRq0-184" vertex="1">
          <mxGeometry x="10" y="70" width="250" height="30" as="geometry" />
        </mxCell>
        <mxCell id="Gc_ng3sy232MjrbWiRq0-187" value="isCompletedRideStatsReceived = true" style="rounded=1;whiteSpace=wrap;html=1;" parent="Gc_ng3sy232MjrbWiRq0-184" vertex="1">
          <mxGeometry x="10" y="110" width="250" height="30" as="geometry" />
        </mxCell>
        <mxCell id="Gc_ng3sy232MjrbWiRq0-188" value="isCompletedRidePointSending = false" style="rounded=1;whiteSpace=wrap;html=1;" parent="Gc_ng3sy232MjrbWiRq0-184" vertex="1">
          <mxGeometry x="10" y="150" width="250" height="30" as="geometry" />
        </mxCell>
        <mxCell id="Gc_ng3sy232MjrbWiRq0-189" value="isCompletedRidePointReceived = false" style="rounded=1;whiteSpace=wrap;html=1;" parent="Gc_ng3sy232MjrbWiRq0-184" vertex="1">
          <mxGeometry x="10" y="190" width="250" height="30" as="geometry" />
        </mxCell>
        <mxCell id="Gc_ng3sy232MjrbWiRq0-190" value="currentPointNumber = 1" style="rounded=1;whiteSpace=wrap;html=1;" parent="Gc_ng3sy232MjrbWiRq0-184" vertex="1">
          <mxGeometry x="10" y="230" width="250" height="30" as="geometry" />
        </mxCell>
        <mxCell id="Gc_ng3sy232MjrbWiRq0-191" value="CRDataCaracteristic.value = completedRide_Stats" style="rounded=1;whiteSpace=wrap;html=1;" parent="Gc_ng3sy232MjrbWiRq0-184" vertex="1">
          <mxGeometry x="10" y="270" width="250" height="30" as="geometry" />
        </mxCell>
        <mxCell id="Gc_ng3sy232MjrbWiRq0-192" value="CRNotificationCaracteristic.value = &quot;0&quot;" style="rounded=1;whiteSpace=wrap;html=1;" parent="Gc_ng3sy232MjrbWiRq0-184" vertex="1">
          <mxGeometry x="10" y="310" width="250" height="30" as="geometry" />
        </mxCell>
        <mxCell id="Gc_ng3sy232MjrbWiRq0-193" value="BLE envoi le point" style="swimlane;horizontal=0;whiteSpace=wrap;html=1;" parent="Gc_ng3sy232MjrbWiRq0-278" vertex="1">
          <mxGeometry x="140" y="505" width="880" height="450" as="geometry" />
        </mxCell>
        <mxCell id="Gc_ng3sy232MjrbWiRq0-194" value="SDCard" style="swimlane;whiteSpace=wrap;html=1;" parent="Gc_ng3sy232MjrbWiRq0-193" vertex="1">
          <mxGeometry x="40" y="10" width="250" height="150" as="geometry" />
        </mxCell>
        <mxCell id="Gc_ng3sy232MjrbWiRq0-195" value="isSendigRide = true" style="rounded=1;whiteSpace=wrap;html=1;" parent="Gc_ng3sy232MjrbWiRq0-194" vertex="1">
          <mxGeometry x="10" y="30" width="130" height="30" as="geometry" />
        </mxCell>
        <mxCell id="Gc_ng3sy232MjrbWiRq0-196" value="isSendigPoints = true" style="rounded=1;whiteSpace=wrap;html=1;" parent="Gc_ng3sy232MjrbWiRq0-194" vertex="1">
          <mxGeometry x="10" y="70" width="130" height="30" as="geometry" />
        </mxCell>
        <mxCell id="Gc_ng3sy232MjrbWiRq0-197" value="queueCompletedRideIds.getSize = 0" style="rounded=1;whiteSpace=wrap;html=1;" parent="Gc_ng3sy232MjrbWiRq0-194" vertex="1">
          <mxGeometry x="10" y="110" width="230" height="30" as="geometry" />
        </mxCell>
        <mxCell id="Gc_ng3sy232MjrbWiRq0-198" value="TSProperties.PropertiesCompletedRideToSend" style="swimlane;whiteSpace=wrap;html=1;" parent="Gc_ng3sy232MjrbWiRq0-193" vertex="1">
          <mxGeometry x="300" y="10" width="280" height="430" as="geometry" />
        </mxCell>
        <mxCell id="Gc_ng3sy232MjrbWiRq0-199" value="CompletedRideId = completedRide_ID" style="rounded=1;whiteSpace=wrap;html=1;" parent="Gc_ng3sy232MjrbWiRq0-198" vertex="1">
          <mxGeometry x="10" y="30" width="260" height="30" as="geometry" />
        </mxCell>
        <mxCell id="Gc_ng3sy232MjrbWiRq0-200" value="Stats = completedRide_Stats" style="rounded=1;whiteSpace=wrap;html=1;" parent="Gc_ng3sy232MjrbWiRq0-198" vertex="1">
          <mxGeometry x="10" y="70" width="260" height="30" as="geometry" />
        </mxCell>
        <mxCell id="Gc_ng3sy232MjrbWiRq0-201" value="Point = point_read" style="rounded=1;whiteSpace=wrap;html=1;" parent="Gc_ng3sy232MjrbWiRq0-198" vertex="1">
          <mxGeometry x="10" y="110" width="130" height="30" as="geometry" />
        </mxCell>
        <mxCell id="Gc_ng3sy232MjrbWiRq0-202" value="CurrentPointNumber = numberOfPointRead" style="rounded=1;whiteSpace=wrap;html=1;" parent="Gc_ng3sy232MjrbWiRq0-198" vertex="1">
          <mxGeometry x="10" y="150" width="260" height="30" as="geometry" />
        </mxCell>
        <mxCell id="Gc_ng3sy232MjrbWiRq0-203" value="NbPoints = completedRide_NbOfPoints" style="rounded=1;whiteSpace=wrap;html=1;" parent="Gc_ng3sy232MjrbWiRq0-198" vertex="1">
          <mxGeometry x="10" y="190" width="260" height="30" as="geometry" />
        </mxCell>
        <mxCell id="Gc_ng3sy232MjrbWiRq0-204" value="IsStatsReceived = true" style="rounded=1;whiteSpace=wrap;html=1;" parent="Gc_ng3sy232MjrbWiRq0-198" vertex="1">
          <mxGeometry x="10" y="230" width="130" height="30" as="geometry" />
        </mxCell>
        <mxCell id="Gc_ng3sy232MjrbWiRq0-205" value="IsPointReady = true" style="rounded=1;whiteSpace=wrap;html=1;" parent="Gc_ng3sy232MjrbWiRq0-198" vertex="1">
          <mxGeometry x="10" y="270" width="130" height="30" as="geometry" />
        </mxCell>
        <mxCell id="Gc_ng3sy232MjrbWiRq0-206" value="IsPointReceived = false" style="rounded=1;whiteSpace=wrap;html=1;" parent="Gc_ng3sy232MjrbWiRq0-198" vertex="1">
          <mxGeometry x="10" y="310" width="130" height="30" as="geometry" />
        </mxCell>
        <mxCell id="Gc_ng3sy232MjrbWiRq0-207" value="IsReady = true" style="rounded=1;whiteSpace=wrap;html=1;" parent="Gc_ng3sy232MjrbWiRq0-198" vertex="1">
          <mxGeometry x="10" y="350" width="130" height="30" as="geometry" />
        </mxCell>
        <mxCell id="Gc_ng3sy232MjrbWiRq0-208" value="IsReceived = false" style="rounded=1;whiteSpace=wrap;html=1;" parent="Gc_ng3sy232MjrbWiRq0-198" vertex="1">
          <mxGeometry x="10" y="390" width="130" height="30" as="geometry" />
        </mxCell>
        <mxCell id="zQi3U9UOKVfZqa7NP3H--13" style="edgeStyle=orthogonalEdgeStyle;rounded=0;orthogonalLoop=1;jettySize=auto;html=1;exitX=0.5;exitY=1;exitDx=0;exitDy=0;" edge="1" parent="Gc_ng3sy232MjrbWiRq0-193" source="Gc_ng3sy232MjrbWiRq0-209">
          <mxGeometry relative="1" as="geometry">
            <mxPoint x="580" y="380" as="targetPoint" />
          </mxGeometry>
        </mxCell>
        <mxCell id="zQi3U9UOKVfZqa7NP3H--14" value="Modifie" style="edgeLabel;html=1;align=center;verticalAlign=middle;resizable=0;points=[];" vertex="1" connectable="0" parent="zQi3U9UOKVfZqa7NP3H--13">
          <mxGeometry x="0.453" y="1" relative="1" as="geometry">
            <mxPoint x="35" as="offset" />
          </mxGeometry>
        </mxCell>
        <mxCell id="Gc_ng3sy232MjrbWiRq0-209" value="BLE" style="swimlane;whiteSpace=wrap;html=1;" parent="Gc_ng3sy232MjrbWiRq0-193" vertex="1">
          <mxGeometry x="590" y="10" width="270" height="350" as="geometry" />
        </mxCell>
        <mxCell id="Gc_ng3sy232MjrbWiRq0-210" value="isDeviceConnected = true" style="rounded=1;whiteSpace=wrap;html=1;" parent="Gc_ng3sy232MjrbWiRq0-209" vertex="1">
          <mxGeometry x="10" y="30" width="250" height="30" as="geometry" />
        </mxCell>
        <mxCell id="Gc_ng3sy232MjrbWiRq0-211" value="isCompletedRideStatsSending = false" style="rounded=1;whiteSpace=wrap;html=1;" parent="Gc_ng3sy232MjrbWiRq0-209" vertex="1">
          <mxGeometry x="10" y="70" width="250" height="30" as="geometry" />
        </mxCell>
        <mxCell id="Gc_ng3sy232MjrbWiRq0-212" value="isCompletedRideStatsReceived = true" style="rounded=1;whiteSpace=wrap;html=1;" parent="Gc_ng3sy232MjrbWiRq0-209" vertex="1">
          <mxGeometry x="10" y="110" width="250" height="30" as="geometry" />
        </mxCell>
        <mxCell id="Gc_ng3sy232MjrbWiRq0-213" value="isCompletedRidePointSending = true" style="rounded=1;whiteSpace=wrap;html=1;fillColor=#fff2cc;strokeColor=#d6b656;" parent="Gc_ng3sy232MjrbWiRq0-209" vertex="1">
          <mxGeometry x="10" y="150" width="250" height="30" as="geometry" />
        </mxCell>
        <mxCell id="Gc_ng3sy232MjrbWiRq0-214" value="isCompletedRidePointReceived = false" style="rounded=1;whiteSpace=wrap;html=1;" parent="Gc_ng3sy232MjrbWiRq0-209" vertex="1">
          <mxGeometry x="10" y="190" width="250" height="30" as="geometry" />
        </mxCell>
        <mxCell id="Gc_ng3sy232MjrbWiRq0-215" value="currentPointNumber = numberOfPointRead" style="rounded=1;whiteSpace=wrap;html=1;fillColor=#fff2cc;strokeColor=#d6b656;" parent="Gc_ng3sy232MjrbWiRq0-209" vertex="1">
          <mxGeometry x="10" y="230" width="250" height="30" as="geometry" />
        </mxCell>
        <mxCell id="Gc_ng3sy232MjrbWiRq0-216" value="CRDataCaracteristic.value = point_read" style="rounded=1;whiteSpace=wrap;html=1;fillColor=#fff2cc;strokeColor=#d6b656;" parent="Gc_ng3sy232MjrbWiRq0-209" vertex="1">
          <mxGeometry x="10" y="270" width="250" height="30" as="geometry" />
        </mxCell>
        <mxCell id="Gc_ng3sy232MjrbWiRq0-217" value="CRNotificationCaracteristic.value = &quot;sending&quot;" style="rounded=1;whiteSpace=wrap;html=1;fillColor=#fff2cc;strokeColor=#d6b656;" parent="Gc_ng3sy232MjrbWiRq0-209" vertex="1">
          <mxGeometry x="10" y="310" width="250" height="30" as="geometry" />
        </mxCell>
        <mxCell id="Gc_ng3sy232MjrbWiRq0-226" value="Reçoi la confirmation de la réception du point" style="swimlane;horizontal=0;whiteSpace=wrap;html=1;startSize=23;" parent="Gc_ng3sy232MjrbWiRq0-278" vertex="1">
          <mxGeometry x="140" y="985" width="880" height="450" as="geometry" />
        </mxCell>
        <mxCell id="Gc_ng3sy232MjrbWiRq0-227" value="SDCard" style="swimlane;whiteSpace=wrap;html=1;" parent="Gc_ng3sy232MjrbWiRq0-226" vertex="1">
          <mxGeometry x="40" y="10" width="250" height="150" as="geometry" />
        </mxCell>
        <mxCell id="Gc_ng3sy232MjrbWiRq0-228" value="isSendigRide = true" style="rounded=1;whiteSpace=wrap;html=1;" parent="Gc_ng3sy232MjrbWiRq0-227" vertex="1">
          <mxGeometry x="10" y="30" width="130" height="30" as="geometry" />
        </mxCell>
        <mxCell id="Gc_ng3sy232MjrbWiRq0-229" value="isSendigPoints = true" style="rounded=1;whiteSpace=wrap;html=1;" parent="Gc_ng3sy232MjrbWiRq0-227" vertex="1">
          <mxGeometry x="10" y="70" width="130" height="30" as="geometry" />
        </mxCell>
        <mxCell id="Gc_ng3sy232MjrbWiRq0-230" value="queueCompletedRideIds.getSize = 0" style="rounded=1;whiteSpace=wrap;html=1;" parent="Gc_ng3sy232MjrbWiRq0-227" vertex="1">
          <mxGeometry x="10" y="110" width="230" height="30" as="geometry" />
        </mxCell>
        <mxCell id="Gc_ng3sy232MjrbWiRq0-231" value="TSProperties.PropertiesCompletedRideToSend" style="swimlane;whiteSpace=wrap;html=1;" parent="Gc_ng3sy232MjrbWiRq0-226" vertex="1">
          <mxGeometry x="300" y="10" width="280" height="430" as="geometry" />
        </mxCell>
        <mxCell id="Gc_ng3sy232MjrbWiRq0-232" value="CompletedRideId = completedRide_ID" style="rounded=1;whiteSpace=wrap;html=1;" parent="Gc_ng3sy232MjrbWiRq0-231" vertex="1">
          <mxGeometry x="10" y="30" width="260" height="30" as="geometry" />
        </mxCell>
        <mxCell id="Gc_ng3sy232MjrbWiRq0-233" value="Stats = completedRide_Stats" style="rounded=1;whiteSpace=wrap;html=1;" parent="Gc_ng3sy232MjrbWiRq0-231" vertex="1">
          <mxGeometry x="10" y="70" width="260" height="30" as="geometry" />
        </mxCell>
        <mxCell id="Gc_ng3sy232MjrbWiRq0-234" value="Point = point_read" style="rounded=1;whiteSpace=wrap;html=1;" parent="Gc_ng3sy232MjrbWiRq0-231" vertex="1">
          <mxGeometry x="10" y="110" width="130" height="30" as="geometry" />
        </mxCell>
        <mxCell id="Gc_ng3sy232MjrbWiRq0-235" value="CurrentPointNumber = numberOfPointRead" style="rounded=1;whiteSpace=wrap;html=1;" parent="Gc_ng3sy232MjrbWiRq0-231" vertex="1">
          <mxGeometry x="10" y="150" width="260" height="30" as="geometry" />
        </mxCell>
        <mxCell id="Gc_ng3sy232MjrbWiRq0-236" value="NbPoints = completedRide_NbOfPoints" style="rounded=1;whiteSpace=wrap;html=1;" parent="Gc_ng3sy232MjrbWiRq0-231" vertex="1">
          <mxGeometry x="10" y="190" width="260" height="30" as="geometry" />
        </mxCell>
        <mxCell id="Gc_ng3sy232MjrbWiRq0-237" value="IsStatsReceived = true" style="rounded=1;whiteSpace=wrap;html=1;" parent="Gc_ng3sy232MjrbWiRq0-231" vertex="1">
          <mxGeometry x="10" y="230" width="130" height="30" as="geometry" />
        </mxCell>
        <mxCell id="Gc_ng3sy232MjrbWiRq0-238" value="IsPointReady = true" style="rounded=1;whiteSpace=wrap;html=1;" parent="Gc_ng3sy232MjrbWiRq0-231" vertex="1">
          <mxGeometry x="10" y="270" width="130" height="30" as="geometry" />
        </mxCell>
        <mxCell id="Gc_ng3sy232MjrbWiRq0-239" value="IsPointReceived = false" style="rounded=1;whiteSpace=wrap;html=1;" parent="Gc_ng3sy232MjrbWiRq0-231" vertex="1">
          <mxGeometry x="10" y="310" width="130" height="30" as="geometry" />
        </mxCell>
        <mxCell id="Gc_ng3sy232MjrbWiRq0-240" value="IsReady = true" style="rounded=1;whiteSpace=wrap;html=1;" parent="Gc_ng3sy232MjrbWiRq0-231" vertex="1">
          <mxGeometry x="10" y="350" width="130" height="30" as="geometry" />
        </mxCell>
        <mxCell id="Gc_ng3sy232MjrbWiRq0-241" value="IsReceived = false" style="rounded=1;whiteSpace=wrap;html=1;" parent="Gc_ng3sy232MjrbWiRq0-231" vertex="1">
          <mxGeometry x="10" y="390" width="130" height="30" as="geometry" />
        </mxCell>
        <mxCell id="Gc_ng3sy232MjrbWiRq0-242" value="BLE" style="swimlane;whiteSpace=wrap;html=1;" parent="Gc_ng3sy232MjrbWiRq0-226" vertex="1">
          <mxGeometry x="590" y="10" width="270" height="350" as="geometry" />
        </mxCell>
        <mxCell id="Gc_ng3sy232MjrbWiRq0-243" value="isDeviceConnected = true" style="rounded=1;whiteSpace=wrap;html=1;" parent="Gc_ng3sy232MjrbWiRq0-242" vertex="1">
          <mxGeometry x="10" y="30" width="250" height="30" as="geometry" />
        </mxCell>
        <mxCell id="Gc_ng3sy232MjrbWiRq0-244" value="isCompletedRideStatsSending = false" style="rounded=1;whiteSpace=wrap;html=1;" parent="Gc_ng3sy232MjrbWiRq0-242" vertex="1">
          <mxGeometry x="10" y="70" width="250" height="30" as="geometry" />
        </mxCell>
        <mxCell id="Gc_ng3sy232MjrbWiRq0-245" value="isCompletedRideStatsReceived = true" style="rounded=1;whiteSpace=wrap;html=1;" parent="Gc_ng3sy232MjrbWiRq0-242" vertex="1">
          <mxGeometry x="10" y="110" width="250" height="30" as="geometry" />
        </mxCell>
        <mxCell id="Gc_ng3sy232MjrbWiRq0-246" value="isCompletedRidePointSending = false" style="rounded=1;whiteSpace=wrap;html=1;fillColor=#fff2cc;strokeColor=#d6b656;" parent="Gc_ng3sy232MjrbWiRq0-242" vertex="1">
          <mxGeometry x="10" y="150" width="250" height="30" as="geometry" />
        </mxCell>
        <mxCell id="Gc_ng3sy232MjrbWiRq0-247" value="isCompletedRidePointReceived = true" style="rounded=1;whiteSpace=wrap;html=1;fillColor=#fff2cc;strokeColor=#d6b656;" parent="Gc_ng3sy232MjrbWiRq0-242" vertex="1">
          <mxGeometry x="10" y="190" width="250" height="30" as="geometry" />
        </mxCell>
        <mxCell id="Gc_ng3sy232MjrbWiRq0-248" value="currentPointNumber = numberOfPointRead" style="rounded=1;whiteSpace=wrap;html=1;" parent="Gc_ng3sy232MjrbWiRq0-242" vertex="1">
          <mxGeometry x="10" y="230" width="250" height="30" as="geometry" />
        </mxCell>
        <mxCell id="Gc_ng3sy232MjrbWiRq0-249" value="CRDataCaracteristic.value = point_read" style="rounded=1;whiteSpace=wrap;html=1;" parent="Gc_ng3sy232MjrbWiRq0-242" vertex="1">
          <mxGeometry x="10" y="270" width="250" height="30" as="geometry" />
        </mxCell>
        <mxCell id="Gc_ng3sy232MjrbWiRq0-250" value="CRNotificationCaracteristic.value = &quot;numberOfPointSent&quot;" style="rounded=1;whiteSpace=wrap;html=1;fillColor=#f8cecc;strokeColor=#b85450;" parent="Gc_ng3sy232MjrbWiRq0-242" vertex="1">
          <mxGeometry x="10" y="310" width="250" height="30" as="geometry" />
        </mxCell>
        <mxCell id="Gc_ng3sy232MjrbWiRq0-279" value="Opérations recommencées tant que CurrentPointNumbre &amp;gt; NbOfPoints" style="text;html=1;align=center;verticalAlign=middle;resizable=0;points=[];autosize=1;strokeColor=none;fillColor=none;rotation=-90;fontSize=31;fontStyle=1" parent="Gc_ng3sy232MjrbWiRq0-278" vertex="1">
          <mxGeometry x="-470" y="947.5" width="1070" height="50" as="geometry" />
        </mxCell>
        <mxCell id="Gc_ng3sy232MjrbWiRq0-283" value="BLE Confirme la réception du point" style="swimlane;horizontal=0;whiteSpace=wrap;html=1;startSize=23;" parent="Gc_ng3sy232MjrbWiRq0-278" vertex="1">
          <mxGeometry x="140" y="1475" width="880" height="450" as="geometry" />
        </mxCell>
        <mxCell id="Gc_ng3sy232MjrbWiRq0-284" value="SDCard" style="swimlane;whiteSpace=wrap;html=1;" parent="Gc_ng3sy232MjrbWiRq0-283" vertex="1">
          <mxGeometry x="40" y="10" width="250" height="150" as="geometry" />
        </mxCell>
        <mxCell id="Gc_ng3sy232MjrbWiRq0-285" value="isSendigRide = true" style="rounded=1;whiteSpace=wrap;html=1;" parent="Gc_ng3sy232MjrbWiRq0-284" vertex="1">
          <mxGeometry x="10" y="30" width="130" height="30" as="geometry" />
        </mxCell>
        <mxCell id="Gc_ng3sy232MjrbWiRq0-286" value="isSendigPoints = true" style="rounded=1;whiteSpace=wrap;html=1;" parent="Gc_ng3sy232MjrbWiRq0-284" vertex="1">
          <mxGeometry x="10" y="70" width="130" height="30" as="geometry" />
        </mxCell>
        <mxCell id="Gc_ng3sy232MjrbWiRq0-287" value="queueCompletedRideIds.getSize = 0" style="rounded=1;whiteSpace=wrap;html=1;" parent="Gc_ng3sy232MjrbWiRq0-284" vertex="1">
          <mxGeometry x="10" y="110" width="230" height="30" as="geometry" />
        </mxCell>
        <mxCell id="Gc_ng3sy232MjrbWiRq0-288" value="TSProperties.PropertiesCompletedRideToSend" style="swimlane;whiteSpace=wrap;html=1;" parent="Gc_ng3sy232MjrbWiRq0-283" vertex="1">
          <mxGeometry x="300" y="10" width="280" height="430" as="geometry" />
        </mxCell>
        <mxCell id="Gc_ng3sy232MjrbWiRq0-289" value="CompletedRideId = completedRide_ID" style="rounded=1;whiteSpace=wrap;html=1;" parent="Gc_ng3sy232MjrbWiRq0-288" vertex="1">
          <mxGeometry x="10" y="30" width="260" height="30" as="geometry" />
        </mxCell>
        <mxCell id="Gc_ng3sy232MjrbWiRq0-290" value="Stats = completedRide_Stats" style="rounded=1;whiteSpace=wrap;html=1;" parent="Gc_ng3sy232MjrbWiRq0-288" vertex="1">
          <mxGeometry x="10" y="70" width="260" height="30" as="geometry" />
        </mxCell>
        <mxCell id="Gc_ng3sy232MjrbWiRq0-291" value="Point = point_read" style="rounded=1;whiteSpace=wrap;html=1;" parent="Gc_ng3sy232MjrbWiRq0-288" vertex="1">
          <mxGeometry x="10" y="110" width="130" height="30" as="geometry" />
        </mxCell>
        <mxCell id="Gc_ng3sy232MjrbWiRq0-292" value="CurrentPointNumber = numberOfPointRead" style="rounded=1;whiteSpace=wrap;html=1;" parent="Gc_ng3sy232MjrbWiRq0-288" vertex="1">
          <mxGeometry x="10" y="150" width="260" height="30" as="geometry" />
        </mxCell>
        <mxCell id="Gc_ng3sy232MjrbWiRq0-293" value="NbPoints = completedRide_NbOfPoints" style="rounded=1;whiteSpace=wrap;html=1;" parent="Gc_ng3sy232MjrbWiRq0-288" vertex="1">
          <mxGeometry x="10" y="190" width="260" height="30" as="geometry" />
        </mxCell>
        <mxCell id="Gc_ng3sy232MjrbWiRq0-294" value="IsStatsReceived = true" style="rounded=1;whiteSpace=wrap;html=1;" parent="Gc_ng3sy232MjrbWiRq0-288" vertex="1">
          <mxGeometry x="10" y="230" width="130" height="30" as="geometry" />
        </mxCell>
        <mxCell id="Gc_ng3sy232MjrbWiRq0-295" value="IsPointReady = false" style="rounded=1;whiteSpace=wrap;html=1;fillColor=#fff2cc;strokeColor=#d6b656;" parent="Gc_ng3sy232MjrbWiRq0-288" vertex="1">
          <mxGeometry x="10" y="270" width="130" height="30" as="geometry" />
        </mxCell>
        <mxCell id="Gc_ng3sy232MjrbWiRq0-296" value="IsPointReceived = true" style="rounded=1;whiteSpace=wrap;html=1;fillColor=#fff2cc;strokeColor=#d6b656;" parent="Gc_ng3sy232MjrbWiRq0-288" vertex="1">
          <mxGeometry x="10" y="310" width="130" height="30" as="geometry" />
        </mxCell>
        <mxCell id="Gc_ng3sy232MjrbWiRq0-297" value="IsReady = true" style="rounded=1;whiteSpace=wrap;html=1;" parent="Gc_ng3sy232MjrbWiRq0-288" vertex="1">
          <mxGeometry x="10" y="350" width="130" height="30" as="geometry" />
        </mxCell>
        <mxCell id="Gc_ng3sy232MjrbWiRq0-298" value="IsReceived = false" style="rounded=1;whiteSpace=wrap;html=1;" parent="Gc_ng3sy232MjrbWiRq0-288" vertex="1">
          <mxGeometry x="10" y="390" width="130" height="30" as="geometry" />
        </mxCell>
        <mxCell id="zQi3U9UOKVfZqa7NP3H--18" style="edgeStyle=orthogonalEdgeStyle;rounded=0;orthogonalLoop=1;jettySize=auto;html=1;exitX=0.5;exitY=1;exitDx=0;exitDy=0;" edge="1" parent="Gc_ng3sy232MjrbWiRq0-283" source="Gc_ng3sy232MjrbWiRq0-299">
          <mxGeometry relative="1" as="geometry">
            <mxPoint x="580" y="380" as="targetPoint" />
          </mxGeometry>
        </mxCell>
        <mxCell id="zQi3U9UOKVfZqa7NP3H--19" value="Modifie" style="edgeLabel;html=1;align=center;verticalAlign=middle;resizable=0;points=[];" vertex="1" connectable="0" parent="zQi3U9UOKVfZqa7NP3H--18">
          <mxGeometry x="-0.2532" y="-1" relative="1" as="geometry">
            <mxPoint as="offset" />
          </mxGeometry>
        </mxCell>
        <mxCell id="Gc_ng3sy232MjrbWiRq0-299" value="BLE" style="swimlane;whiteSpace=wrap;html=1;" parent="Gc_ng3sy232MjrbWiRq0-283" vertex="1">
          <mxGeometry x="590" y="10" width="270" height="350" as="geometry" />
        </mxCell>
        <mxCell id="Gc_ng3sy232MjrbWiRq0-300" value="isDeviceConnected = true" style="rounded=1;whiteSpace=wrap;html=1;" parent="Gc_ng3sy232MjrbWiRq0-299" vertex="1">
          <mxGeometry x="10" y="30" width="250" height="30" as="geometry" />
        </mxCell>
        <mxCell id="Gc_ng3sy232MjrbWiRq0-301" value="isCompletedRideStatsSending = false" style="rounded=1;whiteSpace=wrap;html=1;" parent="Gc_ng3sy232MjrbWiRq0-299" vertex="1">
          <mxGeometry x="10" y="70" width="250" height="30" as="geometry" />
        </mxCell>
        <mxCell id="Gc_ng3sy232MjrbWiRq0-302" value="isCompletedRideStatsReceived = true" style="rounded=1;whiteSpace=wrap;html=1;" parent="Gc_ng3sy232MjrbWiRq0-299" vertex="1">
          <mxGeometry x="10" y="110" width="250" height="30" as="geometry" />
        </mxCell>
        <mxCell id="Gc_ng3sy232MjrbWiRq0-303" value="isCompletedRidePointSending = false" style="rounded=1;whiteSpace=wrap;html=1;" parent="Gc_ng3sy232MjrbWiRq0-299" vertex="1">
          <mxGeometry x="10" y="150" width="250" height="30" as="geometry" />
        </mxCell>
        <mxCell id="Gc_ng3sy232MjrbWiRq0-304" value="isCompletedRidePointReceived = false" style="rounded=1;whiteSpace=wrap;html=1;fillColor=#fff2cc;strokeColor=#d6b656;" parent="Gc_ng3sy232MjrbWiRq0-299" vertex="1">
          <mxGeometry x="10" y="190" width="250" height="30" as="geometry" />
        </mxCell>
        <mxCell id="Gc_ng3sy232MjrbWiRq0-305" value="currentPointNumber = numberOfPointRead" style="rounded=1;whiteSpace=wrap;html=1;" parent="Gc_ng3sy232MjrbWiRq0-299" vertex="1">
          <mxGeometry x="10" y="230" width="250" height="30" as="geometry" />
        </mxCell>
        <mxCell id="Gc_ng3sy232MjrbWiRq0-306" value="CRDataCaracteristic.value = point_read" style="rounded=1;whiteSpace=wrap;html=1;" parent="Gc_ng3sy232MjrbWiRq0-299" vertex="1">
          <mxGeometry x="10" y="270" width="250" height="30" as="geometry" />
        </mxCell>
        <mxCell id="Gc_ng3sy232MjrbWiRq0-307" value="CRNotificationCaracteristic.value = &quot;numberOfPointSent&quot;" style="rounded=1;whiteSpace=wrap;html=1;" parent="Gc_ng3sy232MjrbWiRq0-299" vertex="1">
          <mxGeometry x="10" y="310" width="250" height="30" as="geometry" />
        </mxCell>
        <mxCell id="Gc_ng3sy232MjrbWiRq0-308" value="SDCard supprime le fichier" style="swimlane;horizontal=0;whiteSpace=wrap;html=1;startSize=23;" parent="1" vertex="1">
          <mxGeometry x="20" y="4880" width="880" height="450" as="geometry" />
        </mxCell>
        <mxCell id="zQi3U9UOKVfZqa7NP3H--22" style="edgeStyle=orthogonalEdgeStyle;rounded=0;orthogonalLoop=1;jettySize=auto;html=1;exitX=0.5;exitY=1;exitDx=0;exitDy=0;entryX=0;entryY=0.5;entryDx=0;entryDy=0;" edge="1" parent="Gc_ng3sy232MjrbWiRq0-308" source="Gc_ng3sy232MjrbWiRq0-309" target="Gc_ng3sy232MjrbWiRq0-313">
          <mxGeometry relative="1" as="geometry" />
        </mxCell>
        <mxCell id="zQi3U9UOKVfZqa7NP3H--23" value="Modifie" style="edgeLabel;html=1;align=center;verticalAlign=middle;resizable=0;points=[];" vertex="1" connectable="0" parent="zQi3U9UOKVfZqa7NP3H--22">
          <mxGeometry x="0.0983" y="-1" relative="1" as="geometry">
            <mxPoint as="offset" />
          </mxGeometry>
        </mxCell>
        <mxCell id="Gc_ng3sy232MjrbWiRq0-309" value="SDCard" style="swimlane;whiteSpace=wrap;html=1;" parent="Gc_ng3sy232MjrbWiRq0-308" vertex="1">
          <mxGeometry x="40" y="10" width="250" height="150" as="geometry" />
        </mxCell>
        <mxCell id="Gc_ng3sy232MjrbWiRq0-310" value="isSendigRide = false" style="rounded=1;whiteSpace=wrap;html=1;fillColor=#fff2cc;strokeColor=#d6b656;" parent="Gc_ng3sy232MjrbWiRq0-309" vertex="1">
          <mxGeometry x="10" y="30" width="130" height="30" as="geometry" />
        </mxCell>
        <mxCell id="Gc_ng3sy232MjrbWiRq0-311" value="isSendigPoints = false" style="rounded=1;whiteSpace=wrap;html=1;fillColor=#fff2cc;strokeColor=#d6b656;" parent="Gc_ng3sy232MjrbWiRq0-309" vertex="1">
          <mxGeometry x="10" y="70" width="130" height="30" as="geometry" />
        </mxCell>
        <mxCell id="Gc_ng3sy232MjrbWiRq0-312" value="queueCompletedRideIds.getSize = 0" style="rounded=1;whiteSpace=wrap;html=1;" parent="Gc_ng3sy232MjrbWiRq0-309" vertex="1">
          <mxGeometry x="10" y="110" width="230" height="30" as="geometry" />
        </mxCell>
        <mxCell id="Gc_ng3sy232MjrbWiRq0-313" value="TSProperties.PropertiesCompletedRideToSend" style="swimlane;whiteSpace=wrap;html=1;" parent="Gc_ng3sy232MjrbWiRq0-308" vertex="1">
          <mxGeometry x="300" y="10" width="280" height="430" as="geometry" />
        </mxCell>
        <mxCell id="Gc_ng3sy232MjrbWiRq0-314" value="CompletedRideId = completedRide_ID" style="rounded=1;whiteSpace=wrap;html=1;" parent="Gc_ng3sy232MjrbWiRq0-313" vertex="1">
          <mxGeometry x="10" y="30" width="260" height="30" as="geometry" />
        </mxCell>
        <mxCell id="Gc_ng3sy232MjrbWiRq0-315" value="Stats = completedRide_Stats" style="rounded=1;whiteSpace=wrap;html=1;" parent="Gc_ng3sy232MjrbWiRq0-313" vertex="1">
          <mxGeometry x="10" y="70" width="260" height="30" as="geometry" />
        </mxCell>
        <mxCell id="Gc_ng3sy232MjrbWiRq0-316" value="Point = point_read" style="rounded=1;whiteSpace=wrap;html=1;" parent="Gc_ng3sy232MjrbWiRq0-313" vertex="1">
          <mxGeometry x="10" y="110" width="130" height="30" as="geometry" />
        </mxCell>
        <mxCell id="Gc_ng3sy232MjrbWiRq0-317" value="CurrentPointNumber = numberOfPointRead" style="rounded=1;whiteSpace=wrap;html=1;" parent="Gc_ng3sy232MjrbWiRq0-313" vertex="1">
          <mxGeometry x="10" y="150" width="260" height="30" as="geometry" />
        </mxCell>
        <mxCell id="Gc_ng3sy232MjrbWiRq0-318" value="NbPoints = completedRide_NbOfPoints" style="rounded=1;whiteSpace=wrap;html=1;" parent="Gc_ng3sy232MjrbWiRq0-313" vertex="1">
          <mxGeometry x="10" y="190" width="260" height="30" as="geometry" />
        </mxCell>
        <mxCell id="Gc_ng3sy232MjrbWiRq0-319" value="IsStatsReceived = false" style="rounded=1;whiteSpace=wrap;html=1;fillColor=#fff2cc;strokeColor=#d6b656;" parent="Gc_ng3sy232MjrbWiRq0-313" vertex="1">
          <mxGeometry x="10" y="230" width="130" height="30" as="geometry" />
        </mxCell>
        <mxCell id="Gc_ng3sy232MjrbWiRq0-320" value="IsPointReady = false" style="rounded=1;whiteSpace=wrap;html=1;fillColor=#fff2cc;strokeColor=#d6b656;" parent="Gc_ng3sy232MjrbWiRq0-313" vertex="1">
          <mxGeometry x="10" y="270" width="130" height="30" as="geometry" />
        </mxCell>
        <mxCell id="Gc_ng3sy232MjrbWiRq0-321" value="IsPointReceived = false" style="rounded=1;whiteSpace=wrap;html=1;fillColor=#fff2cc;strokeColor=#d6b656;" parent="Gc_ng3sy232MjrbWiRq0-313" vertex="1">
          <mxGeometry x="10" y="310" width="130" height="30" as="geometry" />
        </mxCell>
        <mxCell id="Gc_ng3sy232MjrbWiRq0-322" value="IsReady = false" style="rounded=1;whiteSpace=wrap;html=1;fillColor=#fff2cc;strokeColor=#d6b656;" parent="Gc_ng3sy232MjrbWiRq0-313" vertex="1">
          <mxGeometry x="10" y="350" width="130" height="30" as="geometry" />
        </mxCell>
        <mxCell id="Gc_ng3sy232MjrbWiRq0-323" value="IsReceived = false" style="rounded=1;whiteSpace=wrap;html=1;fillColor=#fff2cc;strokeColor=#d6b656;" parent="Gc_ng3sy232MjrbWiRq0-313" vertex="1">
          <mxGeometry x="10" y="390" width="130" height="30" as="geometry" />
        </mxCell>
        <mxCell id="Gc_ng3sy232MjrbWiRq0-324" value="BLE" style="swimlane;whiteSpace=wrap;html=1;" parent="Gc_ng3sy232MjrbWiRq0-308" vertex="1">
          <mxGeometry x="590" y="10" width="270" height="350" as="geometry" />
        </mxCell>
        <mxCell id="Gc_ng3sy232MjrbWiRq0-325" value="isDeviceConnected = true" style="rounded=1;whiteSpace=wrap;html=1;" parent="Gc_ng3sy232MjrbWiRq0-324" vertex="1">
          <mxGeometry x="10" y="30" width="250" height="30" as="geometry" />
        </mxCell>
        <mxCell id="Gc_ng3sy232MjrbWiRq0-326" value="isCompletedRideStatsSending = false" style="rounded=1;whiteSpace=wrap;html=1;" parent="Gc_ng3sy232MjrbWiRq0-324" vertex="1">
          <mxGeometry x="10" y="70" width="250" height="30" as="geometry" />
        </mxCell>
        <mxCell id="Gc_ng3sy232MjrbWiRq0-327" value="isCompletedRideStatsReceived = false" style="rounded=1;whiteSpace=wrap;html=1;" parent="Gc_ng3sy232MjrbWiRq0-324" vertex="1">
          <mxGeometry x="10" y="110" width="250" height="30" as="geometry" />
        </mxCell>
        <mxCell id="Gc_ng3sy232MjrbWiRq0-328" value="isCompletedRidePointSending = false" style="rounded=1;whiteSpace=wrap;html=1;" parent="Gc_ng3sy232MjrbWiRq0-324" vertex="1">
          <mxGeometry x="10" y="150" width="250" height="30" as="geometry" />
        </mxCell>
        <mxCell id="Gc_ng3sy232MjrbWiRq0-329" value="isCompletedRidePointReceived = false" style="rounded=1;whiteSpace=wrap;html=1;" parent="Gc_ng3sy232MjrbWiRq0-324" vertex="1">
          <mxGeometry x="10" y="190" width="250" height="30" as="geometry" />
        </mxCell>
        <mxCell id="Gc_ng3sy232MjrbWiRq0-330" value="currentPointNumber = numberOfPointRead" style="rounded=1;whiteSpace=wrap;html=1;" parent="Gc_ng3sy232MjrbWiRq0-324" vertex="1">
          <mxGeometry x="10" y="230" width="250" height="30" as="geometry" />
        </mxCell>
        <mxCell id="Gc_ng3sy232MjrbWiRq0-331" value="CRDataCaracteristic.value = point_read" style="rounded=1;whiteSpace=wrap;html=1;" parent="Gc_ng3sy232MjrbWiRq0-324" vertex="1">
          <mxGeometry x="10" y="270" width="250" height="30" as="geometry" />
        </mxCell>
        <mxCell id="Gc_ng3sy232MjrbWiRq0-332" value="CRNotificationCaracteristic.value = &quot;numberOfPointSent&quot;" style="rounded=1;whiteSpace=wrap;html=1;" parent="Gc_ng3sy232MjrbWiRq0-324" vertex="1">
          <mxGeometry x="10" y="310" width="250" height="30" as="geometry" />
        </mxCell>
      </root>
    </mxGraphModel>
  </diagram>
</mxfile>
